<?xml version="1.0" encoding="utf-8"?>
<!-- Generator: Adobe Illustrator 17.0.0, SVG Export Plug-In . SVG Version: 6.00 Build 0)  -->
<!DOCTYPE svg PUBLIC "-//W3C//DTD SVG 1.1//EN" "http://www.w3.org/Graphics/SVG/1.1/DTD/svg11.dtd">
<svg version="1.1" id="Capa_1" xmlns="http://www.w3.org/2000/svg" xmlns:xlink="http://www.w3.org/1999/xlink" x="0px" y="0px"
	 width="100%" height="100%" viewBox="0 0 844.198 844.198" enable-background="new 0 0 844.198 844.198"
	 xml:space="preserve">
<g>
	<g>
		<path style="fill:#D9D9D9" d="M470.665,150.691c-0.003-0.008-2.333-5.697-5.602,0.475c0.164-0.388,0.367-0.813,0.602-1.255
			c-0.292,0.546-0.543,1.07-0.728,1.528l-0.649,1.986l-0.001,0.003l0,0l-86.188,263.594c-0.003,0.007-1.499,3.296-3.293,0.365
			c2.343,4.402,6.182,4.346,7.606,4.133l84.325-14.84v0h0.001l2.655-0.467c2.054-0.793,4.842-2.911,6.742-8.72l37.615-115.039
			L470.665,150.691z"/>
		<g>
			<path style="fill:#003824" d="M287.412,143.955c-0.297,0.18-0.571,0.371-0.84,0.569C286.841,144.327,287.114,144.134,287.412,143.955z"
				/>
			<path style="fill:#003824" d="M293.43,142.307c-1.012,0-1.919,0.135-2.772,0.333C291.514,142.444,292.421,142.307,293.43,142.307z"/>
			<path style="fill:#666666" d="M408.187,239.905L408.187,239.905l-28.742-87.903l0-0.001c-2.3-7.033-6.184-9.025-8.783-9.551
				c2.261,0.485,5.477,2.164,7.801,7.241c-2.532-4.969-4.03-1.682-4.409-0.59l-43.604,133.354l43.492,133.013
				c0.774,2.365,1.921,3.773,3.134,4.684l5.23-15.994l-0.422-1.667c-0.127-2.676,0.423-9.678,4.152-28.089c0-0.001,0-0.003,0-0.004
				l23.635-116.715l0,0C409.67,257.683,411.432,249.833,408.187,239.905z"/>
			<path style="fill:#003824" d="M289.777,142.908c-0.493,0.159-0.969,0.329-1.407,0.54C288.809,143.239,289.283,143.064,289.777,142.908z
				"/>
		</g>
		<polygon style="fill:#4D4D4D" points="373.369,151.192 342.632,319.711 330.449,282.454 		"/>
		<polygon style="fill:#BFBFBF" points="470.665,150.691 501.566,319.711 513.748,282.454 		"/>
		<path style="fill:#999999" d="M369.744,142.307H293.43c-8.846,0-11.581,8.49-11.585,8.499l-82.1,251.091h0.043
			c-1.929,5.478-3.135,12.701-3.135,20.705h87.972h3.676c0-7.903,1.18-15.035,3.066-20.489h-0.043L374.053,149.1
			c0.379-1.092,1.876-4.379,4.409,0.59C375.801,143.88,371.971,142.52,369.744,142.307z"/>
		<path style="fill:#999999" d="M644.453,401.896l-81.435-249.054c-2.84-8.685-8.256-10.298-11.075-10.535h-72.707
			c-9.135,0-12.797,5.614-14.173,8.859c3.269-6.173,5.598-0.484,5.602-0.475l82.209,251.421h-0.043
			c1.886,5.454,3.066,12.586,3.066,20.489h3.676h87.972c0-8.004-1.206-15.227-3.135-20.705H644.453z"/>
		<path style="fill:#D9D9D9" d="M373.533,693.507c0.003,0.008,2.333,5.697,5.602-0.475c-0.164,0.388-0.367,0.813-0.602,1.255
			c0.292-0.546,0.543-1.07,0.728-1.529l0.649-1.986l0.001-0.003l0,0l86.188-263.594c0.003-0.007,1.499-3.296,3.293-0.365
			c-2.343-4.402-6.182-4.346-7.606-4.133l-84.325,14.84v0h-0.001l-2.655,0.467c-2.054,0.793-4.842,2.911-6.742,8.72l-37.615,115.039
			L373.533,693.507z"/>
		<g>
			<path style="fill:#003824" d="M556.786,700.242c0.297-0.18,0.571-0.371,0.84-0.569C557.356,699.87,557.083,700.063,556.786,700.242z"/>
			<path style="fill:#003824" d="M550.768,701.891c1.012,0,1.919-0.135,2.772-0.333C552.684,701.754,551.777,701.891,550.768,701.891z"/>
			<path style="fill:#4D4D4D" d="M436.011,604.292C436.011,604.292,436.011,604.293,436.011,604.292l28.742,87.903l0,0.001
				c2.3,7.033,6.184,9.025,8.783,9.551c-2.261-0.485-5.477-2.164-7.801-7.241c2.532,4.969,4.03,1.682,4.409,0.59l43.604-133.354
				L470.256,428.73c-0.774-2.365-1.921-3.773-3.134-4.684l-5.23,15.994l0.422,1.667c0.127,2.676-0.423,9.678-4.152,28.089
				c0,0.001,0,0.003,0,0.004l-23.635,116.715l0,0C434.527,586.515,432.765,594.364,436.011,604.292z"/>
			<path style="fill:#003824" d="M554.421,701.289c0.493-0.159,0.969-0.329,1.407-0.54C555.388,700.958,554.915,701.133,554.421,701.289z"
				/>
		</g>
		<polygon style="fill:#333333" points="470.829,693.005 501.566,524.486 513.748,561.743 		"/>
		<polygon style="fill:#BFBFBF" points="373.533,693.507 342.632,524.486 330.449,561.743 		"/>
		<path style="fill:#808080" d="M474.453,701.891h76.315c8.846,0,11.581-8.49,11.584-8.499l82.1-251.091h-0.043
			c1.929-5.478,3.135-12.701,3.135-20.705h-87.972h-3.676c0,7.903-1.18,15.035-3.066,20.489h0.043l-82.729,253.012
			c-0.379,1.093-1.876,4.379-4.409-0.59C468.396,700.318,472.227,701.677,474.453,701.891z"/>
		<path style="fill:#808080" d="M199.745,442.301l81.435,249.054c2.84,8.685,8.256,10.298,11.075,10.535h72.707
			c9.135,0,12.797-5.614,14.173-8.859c-3.269,6.173-5.598,0.484-5.602,0.475l-82.209-251.421h0.043
			c-1.886-5.454-3.066-12.586-3.066-20.489h-3.676h-87.972c0,8.004,1.206,15.227,3.135,20.705H199.745z"/>
	</g>
</g>
</svg>
