<?xml version="1.0" encoding="utf-8"?>
<!-- Generator: Adobe Illustrator 21.0.0, SVG Export Plug-In . SVG Version: 6.00 Build 0)  -->
<svg version="1.2" baseProfile="tiny" id="Layer_1" xmlns="http://www.w3.org/2000/svg" xmlns:xlink="http://www.w3.org/1999/xlink"
	 x="0px" y="0px" viewBox="0 0 321.1 401.2" overflow="scroll" xml:space="preserve">
<path fill="#57B847" d="M58.8,401.2c0,0-35.3-191.9,108.9-311.6c0,0-127.3,134.3-100.6,306.4"/>
<path fill="#57B847" d="M3.6,224.7c0,0,45.7,40.4,63.8,71.3C67.3,296,25.7,277.6,3.6,224.7"/>
<path fill="#57B847" d="M163.6,294.4c0,0-46.5,9.5-98.2-5.6L63.7,300"/>
<path fill="#57B847" d="M63.7,300c0,0,60.9,17.3,99.8-5.6"/>
<path fill="#57B847" d="M184.3,259.7c0,0-81.1-0.5-121,15.9C63.3,275.6,139.8,290,184.3,259.7"/>
<path fill="#57B847" d="M0.2,185.2c0,0,56.2,62.4,67,87.5C67.2,272.7,19.4,252.8,0.2,185.2"/>
<path fill="#57B847" d="M211.6,222.7c0,0-87.4,31.4-139.6,24.8L69.4,260C69.4,260,139,272.1,211.6,222.7"/>
<path fill="#57B847" d="M0,153.6c0,0,44.9,52.4,66.9,103.4C66.9,257,21.1,227.9,0,153.6"/>
<path fill="#57B847" d="M221.9,203.1c0,0-97.1,7.5-145.8,36.9C76.1,240.1,159.9,237.3,221.9,203.1"/>
<path fill="#57B847" d="M6.3,120.5c0,0,52.6,71.7,68.3,120.8C74.6,241.4,25.4,204.4,6.3,120.5"/>
<path fill="#57B847" d="M26.7,117.5c0,0,41.2,55,51.9,112.7C78.6,230.3,36,178.4,26.7,117.5"/>
<path fill="#57B847" d="M23.7,84.5c0,0,53.3,72.7,60.4,132.8C84,217.3,39.7,139.8,23.7,84.5"/>
<path fill="#57B847" d="M83.4,218.3c0,0,102.2-12.7,145-33.3C228.5,185,134.8,190.7,83.4,218.3z"/>
<path fill="#57B847" d="M85.2,206.1c-0.2,0.1,94.7-10.1,149.9-34.1C235.1,172,158.2,168.5,85.2,206.1z"/>
<path fill="#57B847" d="M95.5,188.7c0,0,85.2-9.7,158.3-41.6C253.8,147.2,166.9,149.4,95.5,188.7z"/>
<path fill="#57B847" d="M101.9,170.7c0,0,139-34.8,185.7-59.1C287.6,111.6,177.6,123.2,101.9,170.7z"/>
<path fill="#57B847" d="M37,52.2c0,0,26.9,99.8,55.3,146.5C92.4,198.7,87,106.3,37,52.2"/>
<path fill="#57B847" d="M98.3,188.1c0,0,1.6-70.5-19.9-123.9C78.3,64.2,73.7,110.5,98.3,188.1z"/>
<path fill="#57B847" d="M108.5,172.2c0,0,16.7-84.8-12.7-127.4C95.8,44.8,89.8,123.7,108.5,172.2z"/>
<path fill="#57B847" d="M113,12.2c0,0-8.2,79.4,6.5,140.3C119.5,152.5,144,61.6,113,12.2"/>
<path fill="#57B847" d="M118.4,146.9c0,0,110.2-20.8,171.1-48.1c0,0-116.4,29.9-159.6,34.2L118.4,146.9z"/>
<path fill="#57B847" d="M127.9,137.7c0,0-7.3-60.1,15.3-111.1C143.2,26.6,154.8,84.8,127.9,137.7z"/>
<path fill="#57B847" d="M142.4,118.8c0,0,0.2-71.8,48-115C190.4,3.8,169.5,79.5,142.4,118.8z"/>
<path fill="#57B847" d="M151.1,105.8c0,0,7-64.2,76.2-105.8C227.3,0,181.6,62.4,151.1,105.8z"/>
<path fill="#57B847" d="M160.8,97.3c0,0,42.6-65.9,106.9-95.6C267.7,1.6,214.7,59.9,160.8,97.3z"/>
<path fill="#57B847" d="M160.8,97.3c0,0,78.6-71.6,158.1-94.9C318.9,2.4,242.5,67.7,160.8,97.3z"/>
<path fill="#57B847" d="M147,104.6c0,0,94.3-49.3,174.1-63C321.1,41.6,222.1,100.1,147,104.6z"/>
<path fill="#57B847" d="M145.6,110.2c0,0,58.1-22.8,169.3-39.6C314.9,70.7,209.1,107.3,145.6,110.2z"/>
<path fill="#57B847" d="M141.8,118.6c0,0,65.8-18.5,148.7-30.6C290.5,88,188.8,127.4,141.8,118.6z"/>
</svg>
