<?xml version="1.0" encoding="utf-8"?>
<!-- Generator: Adobe Illustrator 21.0.0, SVG Export Plug-In . SVG Version: 6.00 Build 0)  -->
<svg version="1.2" baseProfile="tiny" id="Layer_1" xmlns="http://www.w3.org/2000/svg" xmlns:xlink="http://www.w3.org/1999/xlink"
	 x="0px" y="0px" viewBox="0 0 101.8 12.4" overflow="scroll" xml:space="preserve">
<text transform="matrix(1 0 0 1 4.386902e-05 10.1582)" font-family="'Ubuntu'" font-size="12px">F</text>
<text transform="matrix(1 0 0 1 6.4439 10.1582)" font-family="'Ubuntu'" font-size="12px">R</text>
<text transform="matrix(1 0 0 1 14.3277 10.1582)" font-family="'Ubuntu'" font-size="12px">A</text>
<text transform="matrix(1 0 0 1 22.0557 10.1582)" font-family="'Ubuntu'" font-size="12px">C</text>
<text transform="matrix(1 0 0 1 29.6998 10.1582)" font-family="'Ubuntu'" font-size="12px">T</text>
<text transform="matrix(1 0 0 1 35.7115 10.1582)" font-family="'Ubuntu'" font-size="12px">A</text>
<text transform="matrix(1 0 0 1 43.6675 10.1582)" font-family="'Ubuntu'" font-size="12px">L</text>
<text transform="matrix(1 0 0 1 50.0635 10.1582)" font-family="'Ubuntu'" font-size="12px">S</text>
<text transform="matrix(1 0 0 1 56.4478 10.1582)" font-family="'Ubuntu'" font-size="12px"> </text>
<text transform="matrix(1 0 0 1 59.2193 10.1582)" font-family="'Ubuntu'" font-size="12px">S</text>
<text transform="matrix(1 0 0 1 65.6031 10.1582)" font-family="'Ubuntu'" font-size="12px">T</text>
<text transform="matrix(1 0 0 1 72.3833 10.1582)" font-family="'Ubuntu'" font-size="12px">U</text>
<text transform="matrix(1 0 0 1 80.6392 10.1582)" font-family="'Ubuntu'" font-size="12px">D</text>
<text transform="matrix(1 0 0 1 89.1949 10.1582)" font-family="'Ubuntu'" font-size="12px">I</text>
<text transform="matrix(1 0 0 1 92.4224 10.1582)" font-family="'Ubuntu'" font-size="12px">O</text>
</svg>

