<?xml version="1.0" encoding="utf-8"?>
<!-- Generator: Adobe Illustrator 21.0.0, SVG Export Plug-In . SVG Version: 6.00 Build 0)  -->
<svg version="1.1" id="Layer_1" xmlns="http://www.w3.org/2000/svg" xmlns:xlink="http://www.w3.org/1999/xlink" x="0px" y="0px"
	 viewBox="0 0 512 512" style="enable-background:new 0 0 512 512;" xml:space="preserve">
<style type="text/css">
	.st0{display:none;}
	.st1{display:inline;}
	.st2{fill:#ED1C24;}
	.st3{font-family:'ArialMT';}
	.st4{font-size:81.3729px;}
	.st5{fill:none;stroke:#ED1C24;stroke-width:2;stroke-miterlimit:10;}
	.st6{fill:none;stroke:#ED1C24;stroke-miterlimit:10;}
	.st7{fill:#ED1C24;stroke:#ED1C24;stroke-miterlimit:10;}
</style>
<g id="Layer_1_1_" class="st0">
	<g class="st1">
		<g>
			<path class="st2" d="M16.8,243.9c0.1,1.4,1.2,2.6,2.7,2.6s2.6-1.2,2.7-2.6l0,0C24,229.4,30.5,216,41,205.5
				c12.5-12.5,29-19.4,46.6-19.4h336.9c17.6,0,34.2,6.9,46.6,19.4c10.5,10.5,17,23.9,18.7,38.4l0,0c0,1.5,1.2,2.7,2.7,2.7
				s2.7-1.2,2.7-2.7l0,0l0,0l0,0c0,0,0,0,0-0.1c-1.8-15.9-8.9-30.6-20.3-42.1c-13.5-13.5-31.4-20.9-50.4-20.9H87.6
				c-19,0-36.9,7.4-50.4,20.9c-11.4,11.4-18.5,26-20.3,41.8C16.8,243.6,16.8,243.7,16.8,243.9C16.8,243.8,16.8,243.8,16.8,243.9
				L16.8,243.9L16.8,243.9z"/>
			<path class="st2" d="M20.1,258.6L20.1,258.6l0.1-0.1l0,0l0,0l3.7-3.3l0,0l7.8-6.8h0.1l4-3.5c1.1-1,1.2-2.7,0.3-3.8
				c-1-1.1-2.7-1.2-3.8-0.3l-7.8,6.8l0,0l-3.7,3.3l0,0l0,0l-0.1,0.1l0,0c-1.4,1.1-3.4,0.9-4.5-0.4l-3.3-3.8l0,0L6,239
				c-1-1.1-2.7-1.2-3.8-0.3c-1.1,1-1.2,2.7-0.3,3.8l7.7,8.8l4.6,5.3l1.4,1.6C16.9,259.5,18.7,259.7,20.1,258.6z"/>
			<path class="st2" d="M495.2,268.1c0-1.4-1.2-2.6-2.7-2.6s-2.6,1.2-2.7,2.6l0,0c-1.8,14.5-8.3,27.9-18.8,38.4
				c-12.5,12.5-29,19.4-46.6,19.4H87.5c-17.6,0-34.2-6.9-46.6-19.4c-10.5-10.5-17-23.9-18.7-38.4l0,0c0-1.5-1.2-2.7-2.7-2.7
				s-2.7,1.2-2.7,2.7l0,0l0,0l0,0c0,0,0,0,0,0.1c1.8,15.9,8.9,30.6,20.3,42.1c13.5,13.5,31.4,20.9,50.4,20.9h336.9
				c19,0,36.9-7.4,50.4-20.9c11.4-11.4,18.5-26,20.3-41.8C495.2,268.4,495.2,268.3,495.2,268.1C495.2,268.2,495.2,268.2,495.2,268.1
				L495.2,268.1L495.2,268.1z"/>
			<path class="st2" d="M510,269.5l-7.7-8.8l-4.6-5.3l-1.4-1.6c-1.2-1.2-3-1.3-4.4-0.3l0,0l-0.1,0.1c0,0,0,0-0.1,0l0,0l-3.7,3.3l0,0
				l-7.8,6.8h-0.1l-4,3.5c-1.1,1-1.2,2.7-0.3,3.8c1,1.1,2.7,1.2,3.8,0.3l7.8-6.8l0,0l3.7-3.3l0,0l0,0l0.1-0.1l0,0
				c1.4-1.1,3.4-0.9,4.5,0.4l3.3,3.8l0,0l6.8,7.8c1,1.1,2.7,1.2,3.8,0.3C510.9,272.3,511,270.6,510,269.5z"/>
		</g>
		<text transform="matrix(1 0 0 1 88.0566 286.492)" class="st2 st3 st4">?</text>
		<text transform="matrix(1 0 0 1 88.0566 286.492)" class="st5 st3 st4">?</text>
		<text transform="matrix(1 0 0 1 246.331 278.3553)" class="st2 st3 st4">&gt;</text>
		<text transform="matrix(1 0 0 1 246.331 278.3553)" class="st5 st3 st4">&gt;</text>
		<text transform="matrix(1 0 0 1 413.7016 286.492)" class="st2 st3 st4">!</text>
		<text transform="matrix(1 0 0 1 413.7016 286.492)" class="st5 st3 st4">!</text>
	</g>
</g>
<path class="st6" d="M161.1,321.7c8.1-8.1,21.2-8.1,29.3,0l0,0c8.1,8.1,8.1,21.2,0,29.3l-71.9,71.9c-8.1,8.1-21.2,8.1-29.3,0l0,0
	c-8.1-8.1-8.1-21.2,0-29.3L161.1,321.7z"/>
<path class="st6" d="M393.5,89.2c8.1-8.1,21.2-8.1,29.3,0l0,0c8.1,8.1,8.1,21.2,0,29.3L351,190.3c-8.1,8.1-21.2,8.1-29.3,0l0,0
	c-8.1-8.1-8.1-21.2,0-29.3L393.5,89.2L393.5,89.2z"/>
<path class="st6" d="M321.7,350.9c-8.1-8.1-8.1-21.1,0-29.2l0,0c8.1-8.1,21.2-8.1,29.3,0l71.9,71.8c8.1,8.1,8.1,21.2,0,29.3l0,0
	c-8.1,8.1-21.2,8.1-29.2,0L321.7,350.9z"/>
<path class="st7" d="M89.2,118.5c-8.1-8.1-8.1-21.1,0-29.2l0,0c8.1-8.1,21.2-8.1,29.3,0l71.8,71.8c8.1,8.1,8.1,21.2,0,29.3l0,0
	c-8.1,8.1-21.2,8-29.3-0.1L89.2,118.5z"/>
<path class="st6" d="M235.5,370.1c0-11.3,9.2-20.5,20.5-20.5l0,0c11.3,0,20.5,9.2,20.5,20.5v100.6c0,11.3-9.2,20.5-20.5,20.5l0,0
	c-11.3,0-20.5-9.2-20.5-20.5V370.1L235.5,370.1z"/>
<path class="st6" d="M235.5,41.3c0-11.3,9.2-20.5,20.5-20.5l0,0c11.3,0,20.5,9.2,20.5,20.5v100.6c0,11.3-9.2,20.5-20.5,20.5l0,0
	c-11.3,0-20.5-9.2-20.5-20.5V41.3L235.5,41.3z"/>
<path class="st6" d="M370.1,276.5c-11.3,0-20.5-9.2-20.5-20.5l0,0c0-11.3,9.2-20.5,20.5-20.5h100.6c11.3,0,20.5,9.2,20.4,20.5l0,0
	c0,11.3-9.2,20.5-20.5,20.5H370.1z"/>
<path class="st6" d="M41.3,276.5c-11.3,0-20.5-9.2-20.5-20.5l0,0c0-11.3,9.2-20.5,20.5-20.5H142c11.3,0,20.5,9.2,20.5,20.5l0,0
	c0,11.3-9.2,20.5-20.5,20.5H41.3z"/>
</svg>
