<?xml version="1.0" encoding="utf-8"?>
<!-- Generator: Adobe Illustrator 19.0.0, SVG Export Plug-In . SVG Version: 6.00 Build 0)  -->
<svg version="1.2" baseProfile="tiny" id="Layer_1" xmlns="http://www.w3.org/2000/svg" xmlns:xlink="http://www.w3.org/1999/xlink"
	 x="0px" y="0px" viewBox="-1505.8 -124.7 1748.5 763.2" xml:space="preserve">
<g>
	<g>
		<g>
			<g>
				<g>
					<g>
						<g>
							<g>
								<path fill="#333333" d="M-1505-95l51.1-29.5c0.5-0.3,1.1-0.3,1.6,0l51.1,29.5c0.5,0.3,0.8,0.8,0.8,1.4v59
									c0,0.6-0.3,1.1-0.8,1.4l-51.1,29.5c-0.5,0.3-1.1,0.3-1.6,0l-51.1-29.5c-0.5-0.3-0.8-0.8-0.8-1.4v-59
									C-1505.8-94.2-1505.5-94.7-1505-95z"/>
							</g>
							<g>
								<path fill="#333333" d="M-1399-95l51.1-29.5c0.5-0.3,1.1-0.3,1.6,0l51.1,29.5c0.5,0.3,0.8,0.8,0.8,1.4v59
									c0,0.6-0.3,1.1-0.8,1.4l-51.1,29.5c-0.5,0.3-1.1,0.3-1.6,0l-51.1-29.5c-0.5-0.3-0.8-0.8-0.8-1.4v-59
									C-1399.8-94.2-1399.5-94.7-1399-95z"/>
							</g>
						</g>
						<g>
							<g>
								<path fill="#333333" d="M-1293-95l51.1-29.5c0.5-0.3,1.1-0.3,1.6,0l51.1,29.5c0.5,0.3,0.8,0.8,0.8,1.4v59
									c0,0.6-0.3,1.1-0.8,1.4l-51.1,29.5c-0.5,0.3-1.1,0.3-1.6,0l-51.1-29.5c-0.5-0.3-0.8-0.8-0.8-1.4v-59
									C-1293.8-94.2-1293.5-94.7-1293-95z"/>
							</g>
							<g>
								<path fill="#333333" d="M-1187-95l51.1-29.5c0.5-0.3,1.1-0.3,1.6,0l51.1,29.5c0.5,0.3,0.8,0.8,0.8,1.4v59
									c0,0.6-0.3,1.1-0.8,1.4l-51.1,29.5c-0.5,0.3-1.1,0.3-1.6,0l-51.1-29.5c-0.5-0.3-0.8-0.8-0.8-1.4v-59
									C-1187.8-94.2-1187.5-94.7-1187-95z"/>
							</g>
						</g>
					</g>
					<g>
						<g>
							<g>
								<path fill="#333333" d="M-1080.9-95l51.1-29.5c0.5-0.3,1.1-0.3,1.6,0l51.1,29.5c0.5,0.3,0.8,0.8,0.8,1.4v59
									c0,0.6-0.3,1.1-0.8,1.4l-51.1,29.5c-0.5,0.3-1.1,0.3-1.6,0l-51.1-29.5c-0.5-0.3-0.8-0.8-0.8-1.4v-59
									C-1081.7-94.2-1081.4-94.7-1080.9-95z"/>
							</g>
							<g>
								<path fill="#333333" d="M-974.9-95l51.1-29.5c0.5-0.3,1.1-0.3,1.6,0l51.1,29.5c0.5,0.3,0.8,0.8,0.8,1.4v59
									c0,0.6-0.3,1.1-0.8,1.4l-51.1,29.5c-0.5,0.3-1.1,0.3-1.6,0l-51.1-29.5c-0.5-0.3-0.8-0.8-0.8-1.4v-59
									C-975.7-94.2-975.4-94.7-974.9-95z"/>
							</g>
						</g>
						<g>
							<g>
								<path fill="#333333" d="M-868.9-95l51.1-29.5c0.5-0.3,1.1-0.3,1.6,0l51.1,29.5c0.5,0.3,0.8,0.8,0.8,1.4v59
									c0,0.6-0.3,1.1-0.8,1.4l-51.1,29.5c-0.5,0.3-1.1,0.3-1.6,0l-51.1-29.5c-0.5-0.3-0.8-0.8-0.8-1.4v-59
									C-869.7-94.2-869.4-94.7-868.9-95z"/>
							</g>
							<g>
								<path fill="#333333" d="M-762.9-95l51.1-29.5c0.5-0.3,1.1-0.3,1.6,0l51.1,29.5c0.5,0.3,0.8,0.8,0.8,1.4v59
									c0,0.6-0.3,1.1-0.8,1.4l-51.1,29.5c-0.5,0.3-1.1,0.3-1.6,0l-51.1-29.5c-0.5-0.3-0.8-0.8-0.8-1.4v-59
									C-763.7-94.2-763.4-94.7-762.9-95z"/>
							</g>
						</g>
					</g>
				</g>
				<g>
					<g>
						<g>
							<g>
								<path fill="#333333" d="M-657-95l51.1-29.5c0.5-0.3,1.1-0.3,1.6,0l51.1,29.5c0.5,0.3,0.8,0.8,0.8,1.4v59
									c0,0.6-0.3,1.1-0.8,1.4l-51.1,29.5c-0.5,0.3-1.1,0.3-1.6,0L-657-33.2c-0.5-0.3-0.8-0.8-0.8-1.4v-59
									C-657.8-94.2-657.5-94.7-657-95z"/>
							</g>
							<g>
								<path fill="#333333" d="M-551-95l51.1-29.5c0.5-0.3,1.1-0.3,1.6,0l51.1,29.5c0.5,0.3,0.8,0.8,0.8,1.4v59
									c0,0.6-0.3,1.1-0.8,1.4l-51.1,29.5c-0.5,0.3-1.1,0.3-1.6,0L-551-33.2c-0.5-0.3-0.8-0.8-0.8-1.4v-59
									C-551.8-94.2-551.5-94.7-551-95z"/>
							</g>
						</g>
						<g>
							<g>
								<path fill="#333333" d="M-445-95l51.1-29.5c0.5-0.3,1.1-0.3,1.6,0l51.1,29.5c0.5,0.3,0.8,0.8,0.8,1.4v59
									c0,0.6-0.3,1.1-0.8,1.4l-51.1,29.5c-0.5,0.3-1.1,0.3-1.6,0L-445-33.2c-0.5-0.3-0.8-0.8-0.8-1.4v-59
									C-445.8-94.2-445.5-94.7-445-95z"/>
							</g>
							<g>
								<path fill="#333333" d="M-339-95l51.1-29.5c0.5-0.3,1.1-0.3,1.6,0l51.1,29.5c0.5,0.3,0.8,0.8,0.8,1.4v59
									c0,0.6-0.3,1.1-0.8,1.4l-51.1,29.5c-0.5,0.3-1.1,0.3-1.6,0L-339-33.2c-0.5-0.3-0.8-0.8-0.8-1.4v-59
									C-339.8-94.2-339.5-94.7-339-95z"/>
							</g>
						</g>
					</g>
					<g>
						<g>
							<g>
								<path fill="#333333" d="M-232.9-95l51.1-29.5c0.5-0.3,1.1-0.3,1.6,0l51.1,29.5c0.5,0.3,0.8,0.8,0.8,1.4v59
									c0,0.6-0.3,1.1-0.8,1.4l-51.1,29.5c-0.5,0.3-1.1,0.3-1.6,0l-51.1-29.5c-0.5-0.3-0.8-0.8-0.8-1.4v-59
									C-233.7-94.2-233.4-94.7-232.9-95z"/>
							</g>
							<g>
								<path fill="#333333" d="M-126.9-95l51.1-29.5c0.5-0.3,1.1-0.3,1.6,0L-23.1-95c0.5,0.3,0.8,0.8,0.8,1.4v59
									c0,0.6-0.3,1.1-0.8,1.4L-74.2-3.7c-0.5,0.3-1.1,0.3-1.6,0l-51.1-29.5c-0.5-0.3-0.8-0.8-0.8-1.4v-59
									C-127.7-94.2-127.4-94.7-126.9-95z"/>
							</g>
						</g>
						<g>
							<g>
								<path fill="#333333" d="M-20.9-95l51.1-29.5c0.5-0.3,1.1-0.3,1.6,0L82.9-95c0.5,0.3,0.8,0.8,0.8,1.4v59
									c0,0.6-0.3,1.1-0.8,1.4L31.8-3.7c-0.5,0.3-1.1,0.3-1.6,0l-51.1-29.5c-0.5-0.3-0.8-0.8-0.8-1.4v-59
									C-21.7-94.2-21.4-94.7-20.9-95z"/>
							</g>
							<g>
								<path fill="#333333" d="M85.1-95l51.1-29.5c0.5-0.3,1.1-0.3,1.6,0L188.9-95c0.5,0.3,0.8,0.8,0.8,1.4v59
									c0,0.6-0.3,1.1-0.8,1.4L137.8-3.7c-0.5,0.3-1.1,0.3-1.6,0L85.1-33.2c-0.5-0.3-0.8-0.8-0.8-1.4v-59
									C84.3-94.2,84.6-94.7,85.1-95z"/>
							</g>
						</g>
					</g>
				</g>
			</g>
			<g>
				<g>
					<g>
						<g>
							<g>
								<path fill="#333333" d="M-1452.1-3.3l51.1-29.5c0.5-0.3,1.1-0.3,1.6,0l51.1,29.5c0.5,0.3,0.8,0.8,0.8,1.4v59
									c0,0.6-0.3,1.1-0.8,1.4l-51.1,29.5c-0.5,0.3-1.1,0.3-1.6,0l-51.1-29.5c-0.5-0.3-0.8-0.8-0.8-1.4V-2
									C-1452.8-2.5-1452.5-3.1-1452.1-3.3z"/>
							</g>
							<g>
								<path fill="#333333" d="M-1346.1-3.3l51.1-29.5c0.5-0.3,1.1-0.3,1.6,0l51.1,29.5c0.5,0.3,0.8,0.8,0.8,1.4v59
									c0,0.6-0.3,1.1-0.8,1.4l-51.1,29.5c-0.5,0.3-1.1,0.3-1.6,0l-51.1-29.5c-0.5-0.3-0.8-0.8-0.8-1.4V-2
									C-1346.8-2.5-1346.5-3.1-1346.1-3.3z"/>
							</g>
						</g>
						<g>
							<g>
								<path fill="#333333" d="M-1240.1-3.3l51.1-29.5c0.5-0.3,1.1-0.3,1.6,0l51.1,29.5c0.5,0.3,0.8,0.8,0.8,1.4v59
									c0,0.6-0.3,1.1-0.8,1.4l-51.1,29.5c-0.5,0.3-1.1,0.3-1.6,0l-51.1-29.5c-0.5-0.3-0.8-0.8-0.8-1.4V-2
									C-1240.9-2.5-1240.6-3.1-1240.1-3.3z"/>
							</g>
							<g>
								<path fill="#333333" d="M-1134.1-3.3l51.1-29.5c0.5-0.3,1.1-0.3,1.6,0l51.1,29.5c0.5,0.3,0.8,0.8,0.8,1.4v59
									c0,0.6-0.3,1.1-0.8,1.4l-51.1,29.5c-0.5,0.3-1.1,0.3-1.6,0l-51.1-29.5c-0.5-0.3-0.8-0.8-0.8-1.4V-2
									C-1134.9-2.5-1134.6-3.1-1134.1-3.3z"/>
							</g>
						</g>
					</g>
					<g>
						<g>
							<g>
								<path fill="#333333" d="M-1027.9-3.3l51.1-29.5c0.5-0.3,1.1-0.3,1.6,0l51.1,29.5c0.5,0.3,0.8,0.8,0.8,1.4v59
									c0,0.6-0.3,1.1-0.8,1.4l-51.1,29.5c-0.5,0.3-1.1,0.3-1.6,0l-51.1-29.5c-0.5-0.3-0.8-0.8-0.8-1.4V-2
									C-1028.7-2.5-1028.4-3.1-1027.9-3.3z"/>
							</g>
							<g>
								<path fill="#333333" d="M-921.9-3.3l51.1-29.5c0.5-0.3,1.1-0.3,1.6,0l51.1,29.5c0.5,0.3,0.8,0.8,0.8,1.4v59
									c0,0.6-0.3,1.1-0.8,1.4l-51.1,29.5c-0.5,0.3-1.1,0.3-1.6,0l-51.1-29.5c-0.5-0.3-0.8-0.8-0.8-1.4V-2
									C-922.7-2.5-922.4-3.1-921.9-3.3z"/>
							</g>
						</g>
						<g>
							<g>
								<path fill="#333333" d="M-815.9-3.3l51.1-29.5c0.5-0.3,1.1-0.3,1.6,0l51.1,29.5c0.5,0.3,0.8,0.8,0.8,1.4v59
									c0,0.6-0.3,1.1-0.8,1.4l-51.1,29.5c-0.5,0.3-1.1,0.3-1.6,0l-51.1-29.5c-0.5-0.3-0.8-0.8-0.8-1.4V-2
									C-816.7-2.5-816.4-3.1-815.9-3.3z"/>
							</g>
							<g>
								<path fill="#333333" d="M-709.9-3.3l51.1-29.5c0.5-0.3,1.1-0.3,1.6,0l51.1,29.5c0.5,0.3,0.8,0.8,0.8,1.4v59
									c0,0.6-0.3,1.1-0.8,1.4l-51.1,29.5c-0.5,0.3-1.1,0.3-1.6,0l-51.1-29.5c-0.5-0.3-0.8-0.8-0.8-1.4V-2
									C-710.7-2.5-710.4-3.1-709.9-3.3z"/>
							</g>
						</g>
					</g>
				</g>
				<g>
					<g>
						<g>
							<g>
								<path fill="#333333" d="M-604.1-3.3l51.1-29.5c0.5-0.3,1.1-0.3,1.6,0l51.1,29.5c0.5,0.3,0.8,0.8,0.8,1.4v59
									c0,0.6-0.3,1.1-0.8,1.4l-51.1,29.5c-0.5,0.3-1.1,0.3-1.6,0l-51.1-29.5c-0.5-0.3-0.8-0.8-0.8-1.4V-2
									C-604.9-2.5-604.6-3.1-604.1-3.3z"/>
							</g>
							<g>
								<path fill="#333333" d="M-498.1-3.3l51.1-29.5c0.5-0.3,1.1-0.3,1.6,0l51.1,29.5c0.5,0.3,0.8,0.8,0.8,1.4v59
									c0,0.6-0.3,1.1-0.8,1.4l-51.1,29.5c-0.5,0.3-1.1,0.3-1.6,0l-51.1-29.5c-0.5-0.3-0.8-0.8-0.8-1.4V-2
									C-498.9-2.5-498.6-3.1-498.1-3.3z"/>
							</g>
						</g>
						<g>
							<g>
								<path fill="#333333" d="M-392.1-3.3l51.1-29.5c0.5-0.3,1.1-0.3,1.6,0l51.1,29.5c0.5,0.3,0.8,0.8,0.8,1.4v59
									c0,0.6-0.3,1.1-0.8,1.4l-51.1,29.5c-0.5,0.3-1.1,0.3-1.6,0l-51.1-29.5c-0.5-0.3-0.8-0.8-0.8-1.4V-2
									C-392.9-2.5-392.6-3.1-392.1-3.3z"/>
							</g>
							<g>
								<path fill="#333333" d="M-286.1-3.3l51.1-29.5c0.5-0.3,1.1-0.3,1.6,0l51.1,29.5c0.5,0.3,0.8,0.8,0.8,1.4v59
									c0,0.6-0.3,1.1-0.8,1.4l-51.1,29.5c-0.5,0.3-1.1,0.3-1.6,0l-51.1-29.5c-0.5-0.3-0.8-0.8-0.8-1.4V-2
									C-286.9-2.5-286.6-3.1-286.1-3.3z"/>
							</g>
						</g>
					</g>
					<g>
						<g>
							<g>
								<path fill="#333333" d="M-180-3.3l51.1-29.5c0.5-0.3,1.1-0.3,1.6,0l51.1,29.5c0.5,0.3,0.8,0.8,0.8,1.4v59
									c0,0.6-0.3,1.1-0.8,1.4l-51.1,29.5c-0.5,0.3-1.1,0.3-1.6,0L-180,58.4c-0.5-0.3-0.8-0.8-0.8-1.4V-2
									C-180.8-2.5-180.4-3.1-180-3.3z"/>
							</g>
							<g>
								<path fill="#333333" d="M-74-3.3l51.1-29.5c0.5-0.3,1.1-0.3,1.6,0L29.9-3.3c0.5,0.3,0.8,0.8,0.8,1.4v59
									c0,0.6-0.3,1.1-0.8,1.4l-51.1,29.5c-0.5,0.3-1.1,0.3-1.6,0L-74,58.4c-0.5-0.3-0.8-0.8-0.8-1.4V-2C-74.8-2.5-74.4-3.1-74-3.3
									z"/>
							</g>
						</g>
						<g>
							<g>
								<path fill="#333333" d="M32-3.3l51.1-29.5c0.5-0.3,1.1-0.3,1.6,0l51.1,29.5c0.5,0.3,0.8,0.8,0.8,1.4v59
									c0,0.6-0.3,1.1-0.8,1.4L84.7,87.9c-0.5,0.3-1.1,0.3-1.6,0L32,58.4c-0.5-0.3-0.8-0.8-0.8-1.4V-2C31.2-2.5,31.5-3.1,32-3.3z"
									/>
							</g>
							<g>
								<path fill="#333333" d="M138-3.3l51.1-29.5c0.5-0.3,1.1-0.3,1.6,0l51.1,29.5c0.5,0.3,0.8,0.8,0.8,1.4v59
									c0,0.6-0.3,1.1-0.8,1.4l-51.1,29.5c-0.5,0.3-1.1,0.3-1.6,0L138,58.4c-0.5-0.3-0.8-0.8-0.8-1.4V-2
									C137.2-2.5,137.5-3.1,138-3.3z"/>
							</g>
						</g>
					</g>
				</g>
			</g>
		</g>
		<g>
			<g>
				<g>
					<g>
						<g>
							<g>
								<path fill="#333333" d="M-1505,88.5l51.1-29.5c0.5-0.3,1.1-0.3,1.6,0l51.1,29.5c0.5,0.3,0.8,0.8,0.8,1.4v59
									c0,0.6-0.3,1.1-0.8,1.4l-51.1,29.5c-0.5,0.3-1.1,0.3-1.6,0l-51.1-29.5c-0.5-0.3-0.8-0.8-0.8-1.4v-59
									C-1505.8,89.3-1505.5,88.8-1505,88.5z"/>
							</g>
							<g>
								<path fill="#333333" d="M-1399,88.5l51.1-29.5c0.5-0.3,1.1-0.3,1.6,0l51.1,29.5c0.5,0.3,0.8,0.8,0.8,1.4v59
									c0,0.6-0.3,1.1-0.8,1.4l-51.1,29.5c-0.5,0.3-1.1,0.3-1.6,0l-51.1-29.5c-0.5-0.3-0.8-0.8-0.8-1.4v-59
									C-1399.8,89.3-1399.5,88.8-1399,88.5z"/>
							</g>
						</g>
						<g>
							<g>
								<path fill="#333333" d="M-1293,88.5l51.1-29.5c0.5-0.3,1.1-0.3,1.6,0l51.1,29.5c0.5,0.3,0.8,0.8,0.8,1.4v59
									c0,0.6-0.3,1.1-0.8,1.4l-51.1,29.5c-0.5,0.3-1.1,0.3-1.6,0l-51.1-29.5c-0.5-0.3-0.8-0.8-0.8-1.4v-59
									C-1293.8,89.3-1293.5,88.8-1293,88.5z"/>
							</g>
							<g>
								<path fill="#333333" d="M-1187,88.5l51.1-29.5c0.5-0.3,1.1-0.3,1.6,0l51.1,29.5c0.5,0.3,0.8,0.8,0.8,1.4v59
									c0,0.6-0.3,1.1-0.8,1.4l-51.1,29.5c-0.5,0.3-1.1,0.3-1.6,0l-51.1-29.5c-0.5-0.3-0.8-0.8-0.8-1.4v-59
									C-1187.8,89.3-1187.5,88.8-1187,88.5z"/>
							</g>
						</g>
					</g>
					<g>
						<g>
							<g>
								<path fill="#333333" d="M-1080.9,88.5l51.1-29.5c0.5-0.3,1.1-0.3,1.6,0l51.1,29.5c0.5,0.3,0.8,0.8,0.8,1.4v59
									c0,0.6-0.3,1.1-0.8,1.4l-51.1,29.5c-0.5,0.3-1.1,0.3-1.6,0l-51.1-29.5c-0.5-0.3-0.8-0.8-0.8-1.4v-59
									C-1081.7,89.3-1081.4,88.8-1080.9,88.5z"/>
							</g>
							<g>
								<path fill="#333333" d="M-974.9,88.5l51.1-29.5c0.5-0.3,1.1-0.3,1.6,0l51.1,29.5c0.5,0.3,0.8,0.8,0.8,1.4v59
									c0,0.6-0.3,1.1-0.8,1.4l-51.1,29.5c-0.5,0.3-1.1,0.3-1.6,0l-51.1-29.5c-0.5-0.3-0.8-0.8-0.8-1.4v-59
									C-975.7,89.3-975.4,88.8-974.9,88.5z"/>
							</g>
						</g>
						<g>
							<g>
								<path fill="#333333" d="M-868.9,88.5l51.1-29.5c0.5-0.3,1.1-0.3,1.6,0l51.1,29.5c0.5,0.3,0.8,0.8,0.8,1.4v59
									c0,0.6-0.3,1.1-0.8,1.4l-51.1,29.5c-0.5,0.3-1.1,0.3-1.6,0l-51.1-29.5c-0.5-0.3-0.8-0.8-0.8-1.4v-59
									C-869.7,89.3-869.4,88.8-868.9,88.5z"/>
							</g>
							<g>
								<path fill="#333333" d="M-762.9,88.5l51.1-29.5c0.5-0.3,1.1-0.3,1.6,0l51.1,29.5c0.5,0.3,0.8,0.8,0.8,1.4v59
									c0,0.6-0.3,1.1-0.8,1.4l-51.1,29.5c-0.5,0.3-1.1,0.3-1.6,0l-51.1-29.5c-0.5-0.3-0.8-0.8-0.8-1.4v-59
									C-763.7,89.3-763.4,88.8-762.9,88.5z"/>
							</g>
						</g>
					</g>
				</g>
				<g>
					<g>
						<g>
							<g>
								<path fill="#333333" d="M-657,88.5l51.1-29.5c0.5-0.3,1.1-0.3,1.6,0l51.1,29.5c0.5,0.3,0.8,0.8,0.8,1.4v59
									c0,0.6-0.3,1.1-0.8,1.4l-51.1,29.5c-0.5,0.3-1.1,0.3-1.6,0l-51.1-29.5c-0.5-0.3-0.8-0.8-0.8-1.4v-59
									C-657.8,89.3-657.5,88.8-657,88.5z"/>
							</g>
							<g>
								<path fill="#333333" d="M-551,88.5l51.1-29.5c0.5-0.3,1.1-0.3,1.6,0l51.1,29.5c0.5,0.3,0.8,0.8,0.8,1.4v59
									c0,0.6-0.3,1.1-0.8,1.4l-51.1,29.5c-0.5,0.3-1.1,0.3-1.6,0l-51.1-29.5c-0.5-0.3-0.8-0.8-0.8-1.4v-59
									C-551.8,89.3-551.5,88.8-551,88.5z"/>
							</g>
						</g>
						<g>
							<g>
								<path fill="#333333" d="M-445,88.5l51.1-29.5c0.5-0.3,1.1-0.3,1.6,0l51.1,29.5c0.5,0.3,0.8,0.8,0.8,1.4v59
									c0,0.6-0.3,1.1-0.8,1.4l-51.1,29.5c-0.5,0.3-1.1,0.3-1.6,0l-51.1-29.5c-0.5-0.3-0.8-0.8-0.8-1.4v-59
									C-445.8,89.3-445.5,88.8-445,88.5z"/>
							</g>
							<g>
								<path fill="#333333" d="M-339,88.5l51.1-29.5c0.5-0.3,1.1-0.3,1.6,0l51.1,29.5c0.5,0.3,0.8,0.8,0.8,1.4v59
									c0,0.6-0.3,1.1-0.8,1.4l-51.1,29.5c-0.5,0.3-1.1,0.3-1.6,0l-51.1-29.5c-0.5-0.3-0.8-0.8-0.8-1.4v-59
									C-339.8,89.3-339.5,88.8-339,88.5z"/>
							</g>
						</g>
					</g>
					<g>
						<g>
							<g>
								<path fill="#333333" d="M-232.9,88.5l51.1-29.5c0.5-0.3,1.1-0.3,1.6,0l51.1,29.5c0.5,0.3,0.8,0.8,0.8,1.4v59
									c0,0.6-0.3,1.1-0.8,1.4l-51.1,29.5c-0.5,0.3-1.1,0.3-1.6,0l-51.1-29.5c-0.5-0.3-0.8-0.8-0.8-1.4v-59
									C-233.7,89.3-233.4,88.8-232.9,88.5z"/>
							</g>
							<g>
								<path fill="#333333" d="M-126.9,88.5L-75.8,59c0.5-0.3,1.1-0.3,1.6,0l51.1,29.5c0.5,0.3,0.8,0.8,0.8,1.4v59
									c0,0.6-0.3,1.1-0.8,1.4l-51.1,29.5c-0.5,0.3-1.1,0.3-1.6,0l-51.1-29.5c-0.5-0.3-0.8-0.8-0.8-1.4v-59
									C-127.7,89.3-127.4,88.8-126.9,88.5z"/>
							</g>
						</g>
						<g>
							<g>
								<path fill="#333333" d="M-20.9,88.5L30.2,59c0.5-0.3,1.1-0.3,1.6,0l51.1,29.5c0.5,0.3,0.8,0.8,0.8,1.4v59
									c0,0.6-0.3,1.1-0.8,1.4l-51.1,29.5c-0.5,0.3-1.1,0.3-1.6,0l-51.1-29.5c-0.5-0.3-0.8-0.8-0.8-1.4v-59
									C-21.7,89.3-21.4,88.8-20.9,88.5z"/>
							</g>
							<g>
								<path fill="#333333" d="M85.1,88.5L136.2,59c0.5-0.3,1.1-0.3,1.6,0l51.1,29.5c0.5,0.3,0.8,0.8,0.8,1.4v59
									c0,0.6-0.3,1.1-0.8,1.4l-51.1,29.5c-0.5,0.3-1.1,0.3-1.6,0l-51.1-29.5c-0.5-0.3-0.8-0.8-0.8-1.4v-59
									C84.3,89.3,84.6,88.8,85.1,88.5z"/>
							</g>
						</g>
					</g>
				</g>
			</g>
			<g>
				<g>
					<g>
						<g>
							<g>
								<path fill="#333333" d="M-1452.1,180.2l51.1-29.5c0.5-0.3,1.1-0.3,1.6,0l51.1,29.5c0.5,0.3,0.8,0.8,0.8,1.4v59
									c0,0.6-0.3,1.1-0.8,1.4l-51.1,29.5c-0.5,0.3-1.1,0.3-1.6,0l-51.1-29.5c-0.5-0.3-0.8-0.8-0.8-1.4v-59
									C-1452.8,181-1452.5,180.4-1452.1,180.2z"/>
							</g>
							<g>
								<path fill="#333333" d="M-1346.1,180.2l51.1-29.5c0.5-0.3,1.1-0.3,1.6,0l51.1,29.5c0.5,0.3,0.8,0.8,0.8,1.4v59
									c0,0.6-0.3,1.1-0.8,1.4l-51.1,29.5c-0.5,0.3-1.1,0.3-1.6,0l-51.1-29.5c-0.5-0.3-0.8-0.8-0.8-1.4v-59
									C-1346.8,181-1346.5,180.4-1346.1,180.2z"/>
							</g>
						</g>
						<g>
							<g>
								<path fill="#333333" d="M-1240.1,180.2l51.1-29.5c0.5-0.3,1.1-0.3,1.6,0l51.1,29.5c0.5,0.3,0.8,0.8,0.8,1.4v59
									c0,0.6-0.3,1.1-0.8,1.4l-51.1,29.5c-0.5,0.3-1.1,0.3-1.6,0l-51.1-29.5c-0.5-0.3-0.8-0.8-0.8-1.4v-59
									C-1240.9,181-1240.6,180.4-1240.1,180.2z"/>
							</g>
							<g>
								<path fill="#333333" d="M-1134.1,180.2l51.1-29.5c0.5-0.3,1.1-0.3,1.6,0l51.1,29.5c0.5,0.3,0.8,0.8,0.8,1.4v59
									c0,0.6-0.3,1.1-0.8,1.4l-51.1,29.5c-0.5,0.3-1.1,0.3-1.6,0l-51.1-29.5c-0.5-0.3-0.8-0.8-0.8-1.4v-59
									C-1134.9,181-1134.6,180.4-1134.1,180.2z"/>
							</g>
						</g>
					</g>
					<g>
						<g>
							<g>
								<path fill="#333333" d="M-1027.9,180.2l51.1-29.5c0.5-0.3,1.1-0.3,1.6,0l51.1,29.5c0.5,0.3,0.8,0.8,0.8,1.4v59
									c0,0.6-0.3,1.1-0.8,1.4l-51.1,29.5c-0.5,0.3-1.1,0.3-1.6,0l-51.1-29.5c-0.5-0.3-0.8-0.8-0.8-1.4v-59
									C-1028.7,181-1028.4,180.4-1027.9,180.2z"/>
							</g>
							<g>
								<path fill="#333333" d="M-921.9,180.2l51.1-29.5c0.5-0.3,1.1-0.3,1.6,0l51.1,29.5c0.5,0.3,0.8,0.8,0.8,1.4v59
									c0,0.6-0.3,1.1-0.8,1.4l-51.1,29.5c-0.5,0.3-1.1,0.3-1.6,0l-51.1-29.5c-0.5-0.3-0.8-0.8-0.8-1.4v-59
									C-922.7,181-922.4,180.4-921.9,180.2z"/>
							</g>
						</g>
						<g>
							<g>
								<path fill="#333333" d="M-815.9,180.2l51.1-29.5c0.5-0.3,1.1-0.3,1.6,0l51.1,29.5c0.5,0.3,0.8,0.8,0.8,1.4v59
									c0,0.6-0.3,1.1-0.8,1.4l-51.1,29.5c-0.5,0.3-1.1,0.3-1.6,0l-51.1-29.5c-0.5-0.3-0.8-0.8-0.8-1.4v-59
									C-816.7,181-816.4,180.4-815.9,180.2z"/>
							</g>
							<g>
								<path fill="#333333" d="M-709.9,180.2l51.1-29.5c0.5-0.3,1.1-0.3,1.6,0l51.1,29.5c0.5,0.3,0.8,0.8,0.8,1.4v59
									c0,0.6-0.3,1.1-0.8,1.4l-51.1,29.5c-0.5,0.3-1.1,0.3-1.6,0l-51.1-29.5c-0.5-0.3-0.8-0.8-0.8-1.4v-59
									C-710.7,181-710.4,180.4-709.9,180.2z"/>
							</g>
						</g>
					</g>
				</g>
				<g>
					<g>
						<g>
							<g>
								<path fill="#333333" d="M-604.1,180.2l51.1-29.5c0.5-0.3,1.1-0.3,1.6,0l51.1,29.5c0.5,0.3,0.8,0.8,0.8,1.4v59
									c0,0.6-0.3,1.1-0.8,1.4l-51.1,29.5c-0.5,0.3-1.1,0.3-1.6,0l-51.1-29.5c-0.5-0.3-0.8-0.8-0.8-1.4v-59
									C-604.9,181-604.6,180.4-604.1,180.2z"/>
							</g>
							<g>
								<path fill="#333333" d="M-498.1,180.2l51.1-29.5c0.5-0.3,1.1-0.3,1.6,0l51.1,29.5c0.5,0.3,0.8,0.8,0.8,1.4v59
									c0,0.6-0.3,1.1-0.8,1.4l-51.1,29.5c-0.5,0.3-1.1,0.3-1.6,0l-51.1-29.5c-0.5-0.3-0.8-0.8-0.8-1.4v-59
									C-498.9,181-498.6,180.4-498.1,180.2z"/>
							</g>
						</g>
						<g>
							<g>
								<path fill="#333333" d="M-392.1,180.2l51.1-29.5c0.5-0.3,1.1-0.3,1.6,0l51.1,29.5c0.5,0.3,0.8,0.8,0.8,1.4v59
									c0,0.6-0.3,1.1-0.8,1.4l-51.1,29.5c-0.5,0.3-1.1,0.3-1.6,0l-51.1-29.5c-0.5-0.3-0.8-0.8-0.8-1.4v-59
									C-392.9,181-392.6,180.4-392.1,180.2z"/>
							</g>
							<g>
								<path fill="#333333" d="M-286.1,180.2l51.1-29.5c0.5-0.3,1.1-0.3,1.6,0l51.1,29.5c0.5,0.3,0.8,0.8,0.8,1.4v59
									c0,0.6-0.3,1.1-0.8,1.4l-51.1,29.5c-0.5,0.3-1.1,0.3-1.6,0l-51.1-29.5c-0.5-0.3-0.8-0.8-0.8-1.4v-59
									C-286.9,181-286.6,180.4-286.1,180.2z"/>
							</g>
						</g>
					</g>
					<g>
						<g>
							<g>
								<path fill="#333333" d="M-180,180.2l51.1-29.5c0.5-0.3,1.1-0.3,1.6,0l51.1,29.5c0.5,0.3,0.8,0.8,0.8,1.4v59
									c0,0.6-0.3,1.1-0.8,1.4l-51.1,29.5c-0.5,0.3-1.1,0.3-1.6,0l-51.1-29.5c-0.5-0.3-0.8-0.8-0.8-1.4v-59
									C-180.8,181-180.4,180.4-180,180.2z"/>
							</g>
							<g>
								<path fill="#333333" d="M-74,180.2l51.1-29.5c0.5-0.3,1.1-0.3,1.6,0l51.1,29.5c0.5,0.3,0.8,0.8,0.8,1.4v59
									c0,0.6-0.3,1.1-0.8,1.4l-51.1,29.5c-0.5,0.3-1.1,0.3-1.6,0L-74,241.9c-0.5-0.3-0.8-0.8-0.8-1.4v-59
									C-74.8,181-74.4,180.4-74,180.2z"/>
							</g>
						</g>
						<g>
							<g>
								<path fill="#333333" d="M32,180.2l51.1-29.5c0.5-0.3,1.1-0.3,1.6,0l51.1,29.5c0.5,0.3,0.8,0.8,0.8,1.4v59
									c0,0.6-0.3,1.1-0.8,1.4l-51.1,29.5c-0.5,0.3-1.1,0.3-1.6,0L32,241.9c-0.5-0.3-0.8-0.8-0.8-1.4v-59
									C31.2,181,31.5,180.4,32,180.2z"/>
							</g>
							<g>
								<path fill="#333333" d="M138,180.2l51.1-29.5c0.5-0.3,1.1-0.3,1.6,0l51.1,29.5c0.5,0.3,0.8,0.8,0.8,1.4v59
									c0,0.6-0.3,1.1-0.8,1.4l-51.1,29.5c-0.5,0.3-1.1,0.3-1.6,0L138,241.9c-0.5-0.3-0.8-0.8-0.8-1.4v-59
									C137.2,181,137.5,180.4,138,180.2z"/>
							</g>
						</g>
					</g>
				</g>
			</g>
		</g>
	</g>
	<g>
		<g>
			<g>
				<g>
					<g>
						<g>
							<g>
								<path fill="#333333" d="M-1505,271.8l51.1-29.5c0.5-0.3,1.1-0.3,1.6,0l51.1,29.5c0.5,0.3,0.8,0.8,0.8,1.4v59
									c0,0.6-0.3,1.1-0.8,1.4l-51.1,29.5c-0.5,0.3-1.1,0.3-1.6,0l-51.1-29.5c-0.5-0.3-0.8-0.8-0.8-1.4v-59
									C-1505.8,272.6-1505.5,272.1-1505,271.8z"/>
							</g>
							<g>
								<path fill="#333333" d="M-1399,271.8l51.1-29.5c0.5-0.3,1.1-0.3,1.6,0l51.1,29.5c0.5,0.3,0.8,0.8,0.8,1.4v59
									c0,0.6-0.3,1.1-0.8,1.4l-51.1,29.5c-0.5,0.3-1.1,0.3-1.6,0l-51.1-29.5c-0.5-0.3-0.8-0.8-0.8-1.4v-59
									C-1399.8,272.6-1399.5,272.1-1399,271.8z"/>
							</g>
						</g>
						<g>
							<g>
								<path fill="#333333" d="M-1293,271.8l51.1-29.5c0.5-0.3,1.1-0.3,1.6,0l51.1,29.5c0.5,0.3,0.8,0.8,0.8,1.4v59
									c0,0.6-0.3,1.1-0.8,1.4l-51.1,29.5c-0.5,0.3-1.1,0.3-1.6,0l-51.1-29.5c-0.5-0.3-0.8-0.8-0.8-1.4v-59
									C-1293.8,272.6-1293.5,272.1-1293,271.8z"/>
							</g>
							<g>
								<path fill="#333333" d="M-1187,271.8l51.1-29.5c0.5-0.3,1.1-0.3,1.6,0l51.1,29.5c0.5,0.3,0.8,0.8,0.8,1.4v59
									c0,0.6-0.3,1.1-0.8,1.4l-51.1,29.5c-0.5,0.3-1.1,0.3-1.6,0l-51.1-29.5c-0.5-0.3-0.8-0.8-0.8-1.4v-59
									C-1187.8,272.6-1187.5,272.1-1187,271.8z"/>
							</g>
						</g>
					</g>
					<g>
						<g>
							<g>
								<path fill="#333333" d="M-1080.9,271.8l51.1-29.5c0.5-0.3,1.1-0.3,1.6,0l51.1,29.5c0.5,0.3,0.8,0.8,0.8,1.4v59
									c0,0.6-0.3,1.1-0.8,1.4l-51.1,29.5c-0.5,0.3-1.1,0.3-1.6,0l-51.1-29.5c-0.5-0.3-0.8-0.8-0.8-1.4v-59
									C-1081.7,272.6-1081.4,272.1-1080.9,271.8z"/>
							</g>
							<g>
								<path fill="#333333" d="M-974.9,271.8l51.1-29.5c0.5-0.3,1.1-0.3,1.6,0l51.1,29.5c0.5,0.3,0.8,0.8,0.8,1.4v59
									c0,0.6-0.3,1.1-0.8,1.4l-51.1,29.5c-0.5,0.3-1.1,0.3-1.6,0l-51.1-29.5c-0.5-0.3-0.8-0.8-0.8-1.4v-59
									C-975.7,272.6-975.4,272.1-974.9,271.8z"/>
							</g>
						</g>
						<g>
							<g>
								<path fill="#333333" d="M-868.9,271.8l51.1-29.5c0.5-0.3,1.1-0.3,1.6,0l51.1,29.5c0.5,0.3,0.8,0.8,0.8,1.4v59
									c0,0.6-0.3,1.1-0.8,1.4l-51.1,29.5c-0.5,0.3-1.1,0.3-1.6,0l-51.1-29.5c-0.5-0.3-0.8-0.8-0.8-1.4v-59
									C-869.7,272.6-869.4,272.1-868.9,271.8z"/>
							</g>
							<g>
								<path fill="#333333" d="M-762.9,271.8l51.1-29.5c0.5-0.3,1.1-0.3,1.6,0l51.1,29.5c0.5,0.3,0.8,0.8,0.8,1.4v59
									c0,0.6-0.3,1.1-0.8,1.4l-51.1,29.5c-0.5,0.3-1.1,0.3-1.6,0l-51.1-29.5c-0.5-0.3-0.8-0.8-0.8-1.4v-59
									C-763.7,272.6-763.4,272.1-762.9,271.8z"/>
							</g>
						</g>
					</g>
				</g>
				<g>
					<g>
						<g>
							<g>
								<path fill="#333333" d="M-657,271.8l51.1-29.5c0.5-0.3,1.1-0.3,1.6,0l51.1,29.5c0.5,0.3,0.8,0.8,0.8,1.4v59
									c0,0.6-0.3,1.1-0.8,1.4l-51.1,29.5c-0.5,0.3-1.1,0.3-1.6,0l-51.1-29.5c-0.5-0.3-0.8-0.8-0.8-1.4v-59
									C-657.8,272.6-657.5,272.1-657,271.8z"/>
							</g>
							<g>
								<path fill="#333333" d="M-551,271.8l51.1-29.5c0.5-0.3,1.1-0.3,1.6,0l51.1,29.5c0.5,0.3,0.8,0.8,0.8,1.4v59
									c0,0.6-0.3,1.1-0.8,1.4l-51.1,29.5c-0.5,0.3-1.1,0.3-1.6,0l-51.1-29.5c-0.5-0.3-0.8-0.8-0.8-1.4v-59
									C-551.8,272.6-551.5,272.1-551,271.8z"/>
							</g>
						</g>
						<g>
							<g>
								<path fill="#333333" d="M-445,271.8l51.1-29.5c0.5-0.3,1.1-0.3,1.6,0l51.1,29.5c0.5,0.3,0.8,0.8,0.8,1.4v59
									c0,0.6-0.3,1.1-0.8,1.4l-51.1,29.5c-0.5,0.3-1.1,0.3-1.6,0l-51.1-29.5c-0.5-0.3-0.8-0.8-0.8-1.4v-59
									C-445.8,272.6-445.5,272.1-445,271.8z"/>
							</g>
							<g>
								<path fill="#333333" d="M-339,271.8l51.1-29.5c0.5-0.3,1.1-0.3,1.6,0l51.1,29.5c0.5,0.3,0.8,0.8,0.8,1.4v59
									c0,0.6-0.3,1.1-0.8,1.4l-51.1,29.5c-0.5,0.3-1.1,0.3-1.6,0l-51.1-29.5c-0.5-0.3-0.8-0.8-0.8-1.4v-59
									C-339.8,272.6-339.5,272.1-339,271.8z"/>
							</g>
						</g>
					</g>
					<g>
						<g>
							<g>
								<path fill="#333333" d="M-232.9,271.8l51.1-29.5c0.5-0.3,1.1-0.3,1.6,0l51.1,29.5c0.5,0.3,0.8,0.8,0.8,1.4v59
									c0,0.6-0.3,1.1-0.8,1.4l-51.1,29.5c-0.5,0.3-1.1,0.3-1.6,0l-51.1-29.5c-0.5-0.3-0.8-0.8-0.8-1.4v-59
									C-233.7,272.6-233.4,272.1-232.9,271.8z"/>
							</g>
							<g>
								<path fill="#333333" d="M-126.9,271.8l51.1-29.5c0.5-0.3,1.1-0.3,1.6,0l51.1,29.5c0.5,0.3,0.8,0.8,0.8,1.4v59
									c0,0.6-0.3,1.1-0.8,1.4l-51.1,29.5c-0.5,0.3-1.1,0.3-1.6,0l-51.1-29.5c-0.5-0.3-0.8-0.8-0.8-1.4v-59
									C-127.7,272.6-127.4,272.1-126.9,271.8z"/>
							</g>
						</g>
						<g>
							<g>
								<path fill="#333333" d="M-20.9,271.8l51.1-29.5c0.5-0.3,1.1-0.3,1.6,0l51.1,29.5c0.5,0.3,0.8,0.8,0.8,1.4v59
									c0,0.6-0.3,1.1-0.8,1.4l-51.1,29.5c-0.5,0.3-1.1,0.3-1.6,0l-51.1-29.5c-0.5-0.3-0.8-0.8-0.8-1.4v-59
									C-21.7,272.6-21.4,272.1-20.9,271.8z"/>
							</g>
							<g>
								<path fill="#333333" d="M85.1,271.8l51.1-29.5c0.5-0.3,1.1-0.3,1.6,0l51.1,29.5c0.5,0.3,0.8,0.8,0.8,1.4v59
									c0,0.6-0.3,1.1-0.8,1.4l-51.1,29.5c-0.5,0.3-1.1,0.3-1.6,0l-51.1-29.5c-0.5-0.3-0.8-0.8-0.8-1.4v-59
									C84.3,272.6,84.6,272.1,85.1,271.8z"/>
							</g>
						</g>
					</g>
				</g>
			</g>
			<g>
				<g>
					<g>
						<g>
							<g>
								<path fill="#333333" d="M-1452.1,363.5l51.1-29.5c0.5-0.3,1.1-0.3,1.6,0l51.1,29.5c0.5,0.3,0.8,0.8,0.8,1.4v59
									c0,0.6-0.3,1.1-0.8,1.4l-51.1,29.5c-0.5,0.3-1.1,0.3-1.6,0l-51.1-29.5c-0.5-0.3-0.8-0.8-0.8-1.4v-59
									C-1452.8,364.3-1452.5,363.8-1452.1,363.5z"/>
							</g>
							<g>
								<path fill="#333333" d="M-1346.1,363.5l51.1-29.5c0.5-0.3,1.1-0.3,1.6,0l51.1,29.5c0.5,0.3,0.8,0.8,0.8,1.4v59
									c0,0.6-0.3,1.1-0.8,1.4l-51.1,29.5c-0.5,0.3-1.1,0.3-1.6,0l-51.1-29.5c-0.5-0.3-0.8-0.8-0.8-1.4v-59
									C-1346.8,364.3-1346.5,363.8-1346.1,363.5z"/>
							</g>
						</g>
						<g>
							<g>
								<path fill="#333333" d="M-1240.1,363.5l51.1-29.5c0.5-0.3,1.1-0.3,1.6,0l51.1,29.5c0.5,0.3,0.8,0.8,0.8,1.4v59
									c0,0.6-0.3,1.1-0.8,1.4l-51.1,29.5c-0.5,0.3-1.1,0.3-1.6,0l-51.1-29.5c-0.5-0.3-0.8-0.8-0.8-1.4v-59
									C-1240.9,364.3-1240.6,363.8-1240.1,363.5z"/>
							</g>
							<g>
								<path fill="#333333" d="M-1134.1,363.5l51.1-29.5c0.5-0.3,1.1-0.3,1.6,0l51.1,29.5c0.5,0.3,0.8,0.8,0.8,1.4v59
									c0,0.6-0.3,1.1-0.8,1.4l-51.1,29.5c-0.5,0.3-1.1,0.3-1.6,0l-51.1-29.5c-0.5-0.3-0.8-0.8-0.8-1.4v-59
									C-1134.9,364.3-1134.6,363.8-1134.1,363.5z"/>
							</g>
						</g>
					</g>
					<g>
						<g>
							<g>
								<path fill="#333333" d="M-1027.9,363.5l51.1-29.5c0.5-0.3,1.1-0.3,1.6,0l51.1,29.5c0.5,0.3,0.8,0.8,0.8,1.4v59
									c0,0.6-0.3,1.1-0.8,1.4l-51.1,29.5c-0.5,0.3-1.1,0.3-1.6,0l-51.1-29.5c-0.5-0.3-0.8-0.8-0.8-1.4v-59
									C-1028.7,364.3-1028.4,363.8-1027.9,363.5z"/>
							</g>
							<g>
								<path fill="#333333" d="M-921.9,363.5l51.1-29.5c0.5-0.3,1.1-0.3,1.6,0l51.1,29.5c0.5,0.3,0.8,0.8,0.8,1.4v59
									c0,0.6-0.3,1.1-0.8,1.4l-51.1,29.5c-0.5,0.3-1.1,0.3-1.6,0l-51.1-29.5c-0.5-0.3-0.8-0.8-0.8-1.4v-59
									C-922.7,364.3-922.4,363.8-921.9,363.5z"/>
							</g>
						</g>
						<g>
							<g>
								<path fill="#333333" d="M-815.9,363.5l51.1-29.5c0.5-0.3,1.1-0.3,1.6,0l51.1,29.5c0.5,0.3,0.8,0.8,0.8,1.4v59
									c0,0.6-0.3,1.1-0.8,1.4l-51.1,29.5c-0.5,0.3-1.1,0.3-1.6,0l-51.1-29.5c-0.5-0.3-0.8-0.8-0.8-1.4v-59
									C-816.7,364.3-816.4,363.8-815.9,363.5z"/>
							</g>
							<g>
								<path fill="#333333" d="M-709.9,363.5l51.1-29.5c0.5-0.3,1.1-0.3,1.6,0l51.1,29.5c0.5,0.3,0.8,0.8,0.8,1.4v59
									c0,0.6-0.3,1.1-0.8,1.4l-51.1,29.5c-0.5,0.3-1.1,0.3-1.6,0l-51.1-29.5c-0.5-0.3-0.8-0.8-0.8-1.4v-59
									C-710.7,364.3-710.4,363.8-709.9,363.5z"/>
							</g>
						</g>
					</g>
				</g>
				<g>
					<g>
						<g>
							<g>
								<path fill="#333333" d="M-604.1,363.5L-553,334c0.5-0.3,1.1-0.3,1.6,0l51.1,29.5c0.5,0.3,0.8,0.8,0.8,1.4v59
									c0,0.6-0.3,1.1-0.8,1.4l-51.1,29.5c-0.5,0.3-1.1,0.3-1.6,0l-51.1-29.5c-0.5-0.3-0.8-0.8-0.8-1.4v-59
									C-604.9,364.3-604.6,363.8-604.1,363.5z"/>
							</g>
							<g>
								<path fill="#333333" d="M-498.1,363.5L-447,334c0.5-0.3,1.1-0.3,1.6,0l51.1,29.5c0.5,0.3,0.8,0.8,0.8,1.4v59
									c0,0.6-0.3,1.1-0.8,1.4l-51.1,29.5c-0.5,0.3-1.1,0.3-1.6,0l-51.1-29.5c-0.5-0.3-0.8-0.8-0.8-1.4v-59
									C-498.9,364.3-498.6,363.8-498.1,363.5z"/>
							</g>
						</g>
						<g>
							<g>
								<path fill="#333333" d="M-392.1,363.5L-341,334c0.5-0.3,1.1-0.3,1.6,0l51.1,29.5c0.5,0.3,0.8,0.8,0.8,1.4v59
									c0,0.6-0.3,1.1-0.8,1.4l-51.1,29.5c-0.5,0.3-1.1,0.3-1.6,0l-51.1-29.5c-0.5-0.3-0.8-0.8-0.8-1.4v-59
									C-392.9,364.3-392.6,363.8-392.1,363.5z"/>
							</g>
							<g>
								<path fill="#333333" d="M-286.1,363.5L-235,334c0.5-0.3,1.1-0.3,1.6,0l51.1,29.5c0.5,0.3,0.8,0.8,0.8,1.4v59
									c0,0.6-0.3,1.1-0.8,1.4l-51.1,29.5c-0.5,0.3-1.1,0.3-1.6,0l-51.1-29.5c-0.5-0.3-0.8-0.8-0.8-1.4v-59
									C-286.9,364.3-286.6,363.8-286.1,363.5z"/>
							</g>
						</g>
					</g>
					<g>
						<g>
							<g>
								<path fill="#333333" d="M-180,363.5l51.1-29.5c0.5-0.3,1.1-0.3,1.6,0l51.1,29.5c0.5,0.3,0.8,0.8,0.8,1.4v59
									c0,0.6-0.3,1.1-0.8,1.4l-51.1,29.5c-0.5,0.3-1.1,0.3-1.6,0l-51.1-29.5c-0.5-0.3-0.8-0.8-0.8-1.4v-59
									C-180.8,364.3-180.4,363.8-180,363.5z"/>
							</g>
							<g>
								<path fill="#333333" d="M-74,363.5l51.1-29.5c0.5-0.3,1.1-0.3,1.6,0l51.1,29.5c0.5,0.3,0.8,0.8,0.8,1.4v59
									c0,0.6-0.3,1.1-0.8,1.4l-51.1,29.5c-0.5,0.3-1.1,0.3-1.6,0L-74,425.3c-0.5-0.3-0.8-0.8-0.8-1.4v-59
									C-74.8,364.3-74.4,363.8-74,363.5z"/>
							</g>
						</g>
						<g>
							<g>
								<path fill="#333333" d="M32,363.5L83.1,334c0.5-0.3,1.1-0.3,1.6,0l51.1,29.5c0.5,0.3,0.8,0.8,0.8,1.4v59
									c0,0.6-0.3,1.1-0.8,1.4l-51.1,29.5c-0.5,0.3-1.1,0.3-1.6,0L32,425.3c-0.5-0.3-0.8-0.8-0.8-1.4v-59
									C31.2,364.3,31.5,363.8,32,363.5z"/>
							</g>
							<g>
								<path fill="#333333" d="M138,363.5l51.1-29.5c0.5-0.3,1.1-0.3,1.6,0l51.1,29.5c0.5,0.3,0.8,0.8,0.8,1.4v59
									c0,0.6-0.3,1.1-0.8,1.4l-51.1,29.5c-0.5,0.3-1.1,0.3-1.6,0L138,425.3c-0.5-0.3-0.8-0.8-0.8-1.4v-59
									C137.2,364.3,137.5,363.8,138,363.5z"/>
							</g>
						</g>
					</g>
				</g>
			</g>
		</g>
		<g>
			<g>
				<g>
					<g>
						<g>
							<g>
								<path fill="#333333" d="M-1505,455.3l51.1-29.5c0.5-0.3,1.1-0.3,1.6,0l51.1,29.5c0.5,0.3,0.8,0.8,0.8,1.4v59
									c0,0.6-0.3,1.1-0.8,1.4l-51.1,29.5c-0.5,0.3-1.1,0.3-1.6,0l-51.1-29.5c-0.5-0.3-0.8-0.8-0.8-1.4v-59
									C-1505.8,456.1-1505.5,455.6-1505,455.3z"/>
							</g>
							<g>
								<path fill="#333333" d="M-1399,455.3l51.1-29.5c0.5-0.3,1.1-0.3,1.6,0l51.1,29.5c0.5,0.3,0.8,0.8,0.8,1.4v59
									c0,0.6-0.3,1.1-0.8,1.4l-51.1,29.5c-0.5,0.3-1.1,0.3-1.6,0l-51.1-29.5c-0.5-0.3-0.8-0.8-0.8-1.4v-59
									C-1399.8,456.1-1399.5,455.6-1399,455.3z"/>
							</g>
						</g>
						<g>
							<g>
								<path fill="#333333" d="M-1293,455.3l51.1-29.5c0.5-0.3,1.1-0.3,1.6,0l51.1,29.5c0.5,0.3,0.8,0.8,0.8,1.4v59
									c0,0.6-0.3,1.1-0.8,1.4l-51.1,29.5c-0.5,0.3-1.1,0.3-1.6,0l-51.1-29.5c-0.5-0.3-0.8-0.8-0.8-1.4v-59
									C-1293.8,456.1-1293.5,455.6-1293,455.3z"/>
							</g>
							<g>
								<path fill="#333333" d="M-1187,455.3l51.1-29.5c0.5-0.3,1.1-0.3,1.6,0l51.1,29.5c0.5,0.3,0.8,0.8,0.8,1.4v59
									c0,0.6-0.3,1.1-0.8,1.4l-51.1,29.5c-0.5,0.3-1.1,0.3-1.6,0l-51.1-29.5c-0.5-0.3-0.8-0.8-0.8-1.4v-59
									C-1187.8,456.1-1187.5,455.6-1187,455.3z"/>
							</g>
						</g>
					</g>
					<g>
						<g>
							<g>
								<path fill="#333333" d="M-1080.9,455.3l51.1-29.5c0.5-0.3,1.1-0.3,1.6,0l51.1,29.5c0.5,0.3,0.8,0.8,0.8,1.4v59
									c0,0.6-0.3,1.1-0.8,1.4l-51.1,29.5c-0.5,0.3-1.1,0.3-1.6,0l-51.1-29.5c-0.5-0.3-0.8-0.8-0.8-1.4v-59
									C-1081.7,456.1-1081.4,455.6-1080.9,455.3z"/>
							</g>
							<g>
								<path fill="#333333" d="M-974.9,455.3l51.1-29.5c0.5-0.3,1.1-0.3,1.6,0l51.1,29.5c0.5,0.3,0.8,0.8,0.8,1.4v59
									c0,0.6-0.3,1.1-0.8,1.4l-51.1,29.5c-0.5,0.3-1.1,0.3-1.6,0l-51.1-29.5c-0.5-0.3-0.8-0.8-0.8-1.4v-59
									C-975.7,456.1-975.4,455.6-974.9,455.3z"/>
							</g>
						</g>
						<g>
							<g>
								<path fill="#333333" d="M-868.9,455.3l51.1-29.5c0.5-0.3,1.1-0.3,1.6,0l51.1,29.5c0.5,0.3,0.8,0.8,0.8,1.4v59
									c0,0.6-0.3,1.1-0.8,1.4l-51.1,29.5c-0.5,0.3-1.1,0.3-1.6,0l-51.1-29.5c-0.5-0.3-0.8-0.8-0.8-1.4v-59
									C-869.7,456.1-869.4,455.6-868.9,455.3z"/>
							</g>
							<g>
								<path fill="#333333" d="M-762.9,455.3l51.1-29.5c0.5-0.3,1.1-0.3,1.6,0l51.1,29.5c0.5,0.3,0.8,0.8,0.8,1.4v59
									c0,0.6-0.3,1.1-0.8,1.4l-51.1,29.5c-0.5,0.3-1.1,0.3-1.6,0l-51.1-29.5c-0.5-0.3-0.8-0.8-0.8-1.4v-59
									C-763.7,456.1-763.4,455.6-762.9,455.3z"/>
							</g>
						</g>
					</g>
				</g>
				<g>
					<g>
						<g>
							<g>
								<path fill="#333333" d="M-657,455.3l51.1-29.5c0.5-0.3,1.1-0.3,1.6,0l51.1,29.5c0.5,0.3,0.8,0.8,0.8,1.4v59
									c0,0.6-0.3,1.1-0.8,1.4l-51.1,29.5c-0.5,0.3-1.1,0.3-1.6,0l-51.1-29.5c-0.5-0.3-0.8-0.8-0.8-1.4v-59
									C-657.8,456.1-657.5,455.6-657,455.3z"/>
							</g>
							<g>
								<path fill="#333333" d="M-551,455.3l51.1-29.5c0.5-0.3,1.1-0.3,1.6,0l51.1,29.5c0.5,0.3,0.8,0.8,0.8,1.4v59
									c0,0.6-0.3,1.1-0.8,1.4l-51.1,29.5c-0.5,0.3-1.1,0.3-1.6,0l-51.1-29.5c-0.5-0.3-0.8-0.8-0.8-1.4v-59
									C-551.8,456.1-551.5,455.6-551,455.3z"/>
							</g>
						</g>
						<g>
							<g>
								<path fill="#333333" d="M-445,455.3l51.1-29.5c0.5-0.3,1.1-0.3,1.6,0l51.1,29.5c0.5,0.3,0.8,0.8,0.8,1.4v59
									c0,0.6-0.3,1.1-0.8,1.4l-51.1,29.5c-0.5,0.3-1.1,0.3-1.6,0l-51.1-29.5c-0.5-0.3-0.8-0.8-0.8-1.4v-59
									C-445.8,456.1-445.5,455.6-445,455.3z"/>
							</g>
							<g>
								<path fill="#333333" d="M-339,455.3l51.1-29.5c0.5-0.3,1.1-0.3,1.6,0l51.1,29.5c0.5,0.3,0.8,0.8,0.8,1.4v59
									c0,0.6-0.3,1.1-0.8,1.4l-51.1,29.5c-0.5,0.3-1.1,0.3-1.6,0l-51.1-29.5c-0.5-0.3-0.8-0.8-0.8-1.4v-59
									C-339.8,456.1-339.5,455.6-339,455.3z"/>
							</g>
						</g>
					</g>
					<g>
						<g>
							<g>
								<path fill="#333333" d="M-232.9,455.3l51.1-29.5c0.5-0.3,1.1-0.3,1.6,0l51.1,29.5c0.5,0.3,0.8,0.8,0.8,1.4v59
									c0,0.6-0.3,1.1-0.8,1.4l-51.1,29.5c-0.5,0.3-1.1,0.3-1.6,0l-51.1-29.5c-0.5-0.3-0.8-0.8-0.8-1.4v-59
									C-233.7,456.1-233.4,455.6-232.9,455.3z"/>
							</g>
							<g>
								<path fill="#333333" d="M-126.9,455.3l51.1-29.5c0.5-0.3,1.1-0.3,1.6,0l51.1,29.5c0.5,0.3,0.8,0.8,0.8,1.4v59
									c0,0.6-0.3,1.1-0.8,1.4l-51.1,29.5c-0.5,0.3-1.1,0.3-1.6,0l-51.1-29.5c-0.5-0.3-0.8-0.8-0.8-1.4v-59
									C-127.7,456.1-127.4,455.6-126.9,455.3z"/>
							</g>
						</g>
						<g>
							<g>
								<path fill="#333333" d="M-20.9,455.3l51.1-29.5c0.5-0.3,1.1-0.3,1.6,0l51.1,29.5c0.5,0.3,0.8,0.8,0.8,1.4v59
									c0,0.6-0.3,1.1-0.8,1.4l-51.1,29.5c-0.5,0.3-1.1,0.3-1.6,0l-51.1-29.5c-0.5-0.3-0.8-0.8-0.8-1.4v-59
									C-21.7,456.1-21.4,455.6-20.9,455.3z"/>
							</g>
							<g>
								<path fill="#333333" d="M85.1,455.3l51.1-29.5c0.5-0.3,1.1-0.3,1.6,0l51.1,29.5c0.5,0.3,0.8,0.8,0.8,1.4v59
									c0,0.6-0.3,1.1-0.8,1.4l-51.1,29.5c-0.5,0.3-1.1,0.3-1.6,0l-51.1-29.5c-0.5-0.3-0.8-0.8-0.8-1.4v-59
									C84.3,456.1,84.6,455.6,85.1,455.3z"/>
							</g>
						</g>
					</g>
				</g>
			</g>
			<g>
				<g>
					<g>
						<g>
							<g>
								<path fill="#333333" d="M-1452.1,547l51.1-29.5c0.5-0.3,1.1-0.3,1.6,0l51.1,29.5c0.5,0.3,0.8,0.8,0.8,1.4v59
									c0,0.6-0.3,1.1-0.8,1.4l-51.1,29.5c-0.5,0.3-1.1,0.3-1.6,0l-51.1-29.5c-0.5-0.3-0.8-0.8-0.8-1.4v-59
									C-1452.8,547.8-1452.5,547.3-1452.1,547z"/>
							</g>
							<g>
								<path fill="#333333" d="M-1346.1,547l51.1-29.5c0.5-0.3,1.1-0.3,1.6,0l51.1,29.5c0.5,0.3,0.8,0.8,0.8,1.4v59
									c0,0.6-0.3,1.1-0.8,1.4l-51.1,29.5c-0.5,0.3-1.1,0.3-1.6,0l-51.1-29.5c-0.5-0.3-0.8-0.8-0.8-1.4v-59
									C-1346.8,547.8-1346.5,547.3-1346.1,547z"/>
							</g>
						</g>
						<g>
							<g>
								<path fill="#333333" d="M-1240.1,547l51.1-29.5c0.5-0.3,1.1-0.3,1.6,0l51.1,29.5c0.5,0.3,0.8,0.8,0.8,1.4v59
									c0,0.6-0.3,1.1-0.8,1.4l-51.1,29.5c-0.5,0.3-1.1,0.3-1.6,0l-51.1-29.5c-0.5-0.3-0.8-0.8-0.8-1.4v-59
									C-1240.9,547.8-1240.6,547.3-1240.1,547z"/>
							</g>
							<g>
								<path fill="#333333" d="M-1134.1,547l51.1-29.5c0.5-0.3,1.1-0.3,1.6,0l51.1,29.5c0.5,0.3,0.8,0.8,0.8,1.4v59
									c0,0.6-0.3,1.1-0.8,1.4l-51.1,29.5c-0.5,0.3-1.1,0.3-1.6,0l-51.1-29.5c-0.5-0.3-0.8-0.8-0.8-1.4v-59
									C-1134.9,547.8-1134.6,547.3-1134.1,547z"/>
							</g>
						</g>
					</g>
					<g>
						<g>
							<g>
								<path fill="#333333" d="M-1027.9,547l51.1-29.5c0.5-0.3,1.1-0.3,1.6,0l51.1,29.5c0.5,0.3,0.8,0.8,0.8,1.4v59
									c0,0.6-0.3,1.1-0.8,1.4l-51.1,29.5c-0.5,0.3-1.1,0.3-1.6,0l-51.1-29.5c-0.5-0.3-0.8-0.8-0.8-1.4v-59
									C-1028.7,547.8-1028.4,547.3-1027.9,547z"/>
							</g>
							<g>
								<path fill="#333333" d="M-921.9,547l51.1-29.5c0.5-0.3,1.1-0.3,1.6,0l51.1,29.5c0.5,0.3,0.8,0.8,0.8,1.4v59
									c0,0.6-0.3,1.1-0.8,1.4l-51.1,29.5c-0.5,0.3-1.1,0.3-1.6,0l-51.1-29.5c-0.5-0.3-0.8-0.8-0.8-1.4v-59
									C-922.7,547.8-922.4,547.3-921.9,547z"/>
							</g>
						</g>
						<g>
							<g>
								<path fill="#333333" d="M-815.9,547l51.1-29.5c0.5-0.3,1.1-0.3,1.6,0l51.1,29.5c0.5,0.3,0.8,0.8,0.8,1.4v59
									c0,0.6-0.3,1.1-0.8,1.4l-51.1,29.5c-0.5,0.3-1.1,0.3-1.6,0l-51.1-29.5c-0.5-0.3-0.8-0.8-0.8-1.4v-59
									C-816.7,547.8-816.4,547.3-815.9,547z"/>
							</g>
							<g>
								<path fill="#333333" d="M-709.9,547l51.1-29.5c0.5-0.3,1.1-0.3,1.6,0l51.1,29.5c0.5,0.3,0.8,0.8,0.8,1.4v59
									c0,0.6-0.3,1.1-0.8,1.4l-51.1,29.5c-0.5,0.3-1.1,0.3-1.6,0l-51.1-29.5c-0.5-0.3-0.8-0.8-0.8-1.4v-59
									C-710.7,547.8-710.4,547.3-709.9,547z"/>
							</g>
						</g>
					</g>
				</g>
				<g>
					<g>
						<g>
							<g>
								<path fill="#333333" d="M-604.1,547l51.1-29.5c0.5-0.3,1.1-0.3,1.6,0l51.1,29.5c0.5,0.3,0.8,0.8,0.8,1.4v59
									c0,0.6-0.3,1.1-0.8,1.4l-51.1,29.5c-0.5,0.3-1.1,0.3-1.6,0l-51.1-29.5c-0.5-0.3-0.8-0.8-0.8-1.4v-59
									C-604.9,547.8-604.6,547.3-604.1,547z"/>
							</g>
							<g>
								<path fill="#333333" d="M-498.1,547l51.1-29.5c0.5-0.3,1.1-0.3,1.6,0l51.1,29.5c0.5,0.3,0.8,0.8,0.8,1.4v59
									c0,0.6-0.3,1.1-0.8,1.4l-51.1,29.5c-0.5,0.3-1.1,0.3-1.6,0l-51.1-29.5c-0.5-0.3-0.8-0.8-0.8-1.4v-59
									C-498.9,547.8-498.6,547.3-498.1,547z"/>
							</g>
						</g>
						<g>
							<g>
								<path fill="#333333" d="M-392.1,547l51.1-29.5c0.5-0.3,1.1-0.3,1.6,0l51.1,29.5c0.5,0.3,0.8,0.8,0.8,1.4v59
									c0,0.6-0.3,1.1-0.8,1.4l-51.1,29.5c-0.5,0.3-1.1,0.3-1.6,0l-51.1-29.5c-0.5-0.3-0.8-0.8-0.8-1.4v-59
									C-392.9,547.8-392.6,547.3-392.1,547z"/>
							</g>
							<g>
								<path fill="#333333" d="M-286.1,547l51.1-29.5c0.5-0.3,1.1-0.3,1.6,0l51.1,29.5c0.5,0.3,0.8,0.8,0.8,1.4v59
									c0,0.6-0.3,1.1-0.8,1.4l-51.1,29.5c-0.5,0.3-1.1,0.3-1.6,0l-51.1-29.5c-0.5-0.3-0.8-0.8-0.8-1.4v-59
									C-286.9,547.8-286.6,547.3-286.1,547z"/>
							</g>
						</g>
					</g>
					<g>
						<g>
							<g>
								<path fill="#333333" d="M-180,547l51.1-29.5c0.5-0.3,1.1-0.3,1.6,0l51.1,29.5c0.5,0.3,0.8,0.8,0.8,1.4v59
									c0,0.6-0.3,1.1-0.8,1.4l-51.1,29.5c-0.5,0.3-1.1,0.3-1.6,0l-51.1-29.5c-0.5-0.3-0.8-0.8-0.8-1.4v-59
									C-180.8,547.8-180.4,547.3-180,547z"/>
							</g>
							<g>
								<path fill="#333333" d="M-74,547l51.1-29.5c0.5-0.3,1.1-0.3,1.6,0L29.9,547c0.5,0.3,0.8,0.8,0.8,1.4v59
									c0,0.6-0.3,1.1-0.8,1.4l-51.1,29.5c-0.5,0.3-1.1,0.3-1.6,0L-74,608.8c-0.5-0.3-0.8-0.8-0.8-1.4v-59
									C-74.8,547.8-74.4,547.3-74,547z"/>
							</g>
						</g>
						<g>
							<g>
								<path fill="#333333" d="M32,547l51.1-29.5c0.5-0.3,1.1-0.3,1.6,0l51.1,29.5c0.5,0.3,0.8,0.8,0.8,1.4v59
									c0,0.6-0.3,1.1-0.8,1.4l-51.1,29.5c-0.5,0.3-1.1,0.3-1.6,0L32,608.8c-0.5-0.3-0.8-0.8-0.8-1.4v-59
									C31.2,547.8,31.5,547.3,32,547z"/>
							</g>
							<g>
								<path fill="#333333" d="M138,547l51.1-29.5c0.5-0.3,1.1-0.3,1.6,0l51.1,29.5c0.5,0.3,0.8,0.8,0.8,1.4v59
									c0,0.6-0.3,1.1-0.8,1.4l-51.1,29.5c-0.5,0.3-1.1,0.3-1.6,0L138,608.8c-0.5-0.3-0.8-0.8-0.8-1.4v-59
									C137.2,547.8,137.5,547.3,138,547z"/>
							</g>
						</g>
					</g>
				</g>
			</g>
		</g>
	</g>
</g>
</svg>
