<?xml version="1.0" encoding="utf-8"?>
<!-- Generator: Adobe Illustrator 21.0.0, SVG Export Plug-In . SVG Version: 6.00 Build 0)  -->
<svg version="1.2" baseProfile="tiny" id="Layer_1" xmlns:svg="http://www.w3.org/2000/svg"
	 xmlns="http://www.w3.org/2000/svg" xmlns:xlink="http://www.w3.org/1999/xlink" x="0px" y="0px" viewBox="0 0 396.9 330.3"
	 xml:space="preserve">
<g>
	<title>Layer 1</title>
	<path id="svg_1_3_" d="M295.9,250.3l89.4-51.9c7.2-4.2,11.7-12,11.6-20.3l-0.2-103.3c0-8.4-4.5-16.1-11.7-20.2L295.4,3.1
		c-7.2-4.2-16.1-4.2-23.4,0.1L182.6,55c-7.2,4.2-11.7,12-11.6,20.3l0.2,103.3c0,8.4,4.5,16.1,11.7,20.2l89.6,51.5
		C279.7,254.5,288.6,254.5,295.9,250.3L295.9,250.3z"/>
	<g id="svg_2_3_">
	</g>
	<g id="svg_3_3_">
	</g>
	<g id="svg_4_3_">
	</g>
	<g id="svg_5_3_">
	</g>
	<g id="svg_6_3_">
	</g>
	<g id="svg_7_3_">
	</g>
	<g id="svg_8_3_">
	</g>
	<g id="svg_9_3_">
	</g>
	<g id="svg_10_3_">
	</g>
	<g id="svg_11_3_">
	</g>
	<g id="svg_12_3_">
	</g>
	<g id="svg_13_3_">
	</g>
	<g id="svg_14_3_">
	</g>
	<g id="svg_15_3_">
	</g>
	<g id="svg_16_3_">
	</g>
</g>
<g>
	<title>Layer 1</title>
	<path id="svg_1_1_" d="M89.4,234.7l64-37.2c5.2-3,8.4-8.6,8.3-14.5l-0.1-73.9c0-6-3.2-11.5-8.4-14.5L89,57.8
		c-5.2-3-11.5-3-16.7,0.1l-64,37.1c-5.2,3-8.4,8.6-8.3,14.5l0.1,73.9c0,6,3.2,11.5,8.4,14.5l64.1,36.9
		C77.8,237.7,84.2,237.7,89.4,234.7L89.4,234.7z"/>
	<g id="svg_2_1_">
	</g>
	<g id="svg_3_1_">
	</g>
	<g id="svg_4_1_">
	</g>
	<g id="svg_5_1_">
	</g>
	<g id="svg_6_1_">
	</g>
	<g id="svg_7_1_">
	</g>
	<g id="svg_8_1_">
	</g>
	<g id="svg_9_1_">
	</g>
	<g id="svg_10_1_">
	</g>
	<g id="svg_11_1_">
	</g>
	<g id="svg_12_1_">
	</g>
	<g id="svg_13_1_">
	</g>
	<g id="svg_14_1_">
	</g>
	<g id="svg_15_1_">
	</g>
	<g id="svg_16_1_">
	</g>
</g>
<g>
	<title>Layer 1</title>
	<path id="svg_1_2_" d="M174.1,328.6l45.7-26.6c3.7-2.1,6-6.1,5.9-10.4l-0.1-52.9c0-4.3-2.3-8.2-6-10.3l-45.9-26.4
		c-3.7-2.1-8.2-2.1-12,0.1l-45.7,26.5c-3.7,2.1-6,6.1-5.9,10.4l0.1,52.9c0,4.3,2.3,8.2,6,10.3l45.9,26.4
		C165.8,330.8,170.4,330.8,174.1,328.6L174.1,328.6z"/>
	<g id="svg_2_2_">
	</g>
	<g id="svg_3_2_">
	</g>
	<g id="svg_4_2_">
	</g>
	<g id="svg_5_2_">
	</g>
	<g id="svg_6_2_">
	</g>
	<g id="svg_7_2_">
	</g>
	<g id="svg_8_2_">
	</g>
	<g id="svg_9_2_">
	</g>
	<g id="svg_10_2_">
	</g>
	<g id="svg_11_2_">
	</g>
	<g id="svg_12_2_">
	</g>
	<g id="svg_13_2_">
	</g>
	<g id="svg_14_2_">
	</g>
	<g id="svg_15_2_">
	</g>
	<g id="svg_16_2_">
	</g>
</g>
</svg>

