<?xml version="1.0" encoding="utf-8"?>
<!-- Generator: Adobe Illustrator 21.0.0, SVG Export Plug-In . SVG Version: 6.00 Build 0)  -->
<svg version="1.2" baseProfile="tiny" id="Layer_1" xmlns:svg="http://www.w3.org/2000/svg"
	 xmlns="http://www.w3.org/2000/svg" xmlns:xlink="http://www.w3.org/1999/xlink" x="0px" y="0px" viewBox="0 0 613.4 561.7"
	 xml:space="preserve">
<g>
	<title>Layer 1</title>
	<path id="svg_1" d="M87.6,258.6l-65.5,38c-5.3,3.1-8.5,8.7-8.5,14.9l0.1,75.8c0,6.1,3.3,11.8,8.6,14.8L88,439.9
		c5.3,3.1,11.8,3,17.1,0l65.5-38c5.3-3.1,8.5-8.7,8.5-14.9l-0.1-75.8c0-6.1-3.3-11.8-8.6-14.8l-65.7-37.8
		C99.4,255.7,92.9,255.7,87.6,258.6L87.6,258.6z"/>
	<g id="svg_2">
	</g>
	<g id="svg_3">
	</g>
	<g id="svg_4">
	</g>
	<g id="svg_5">
	</g>
	<g id="svg_6">
	</g>
	<g id="svg_7">
	</g>
	<g id="svg_8">
	</g>
	<g id="svg_9">
	</g>
	<g id="svg_10">
	</g>
	<g id="svg_11">
	</g>
	<g id="svg_12">
	</g>
	<g id="svg_13">
	</g>
	<g id="svg_14">
	</g>
	<g id="svg_15">
	</g>
	<g id="svg_16">
	</g>
</g>
<g>
	<title>Layer 1</title>
	<path id="svg_1_1_" d="M460.9,3.8L351.8,67.1c-8.8,5.1-14.3,14.6-14.2,24.8l0.2,126.1c0,10.2,5.5,19.6,14.3,24.7l109.3,62.9
		c8.8,5.1,19.7,5.1,28.6-0.1l109.2-63.3c8.8-5.1,14.2-14.6,14.2-24.8l-0.2-126.1c0-10.2-5.5-19.6-14.3-24.7L489.6,3.7
		C480.6-1.3,469.8-1.3,460.9,3.8L460.9,3.8z"/>
	<g id="svg_2_1_">
	</g>
	<g id="svg_3_1_">
	</g>
	<g id="svg_4_1_">
	</g>
	<g id="svg_5_1_">
	</g>
	<g id="svg_6_1_">
	</g>
	<g id="svg_7_1_">
	</g>
	<g id="svg_8_1_">
	</g>
	<g id="svg_9_1_">
	</g>
	<g id="svg_10_1_">
	</g>
	<g id="svg_11_1_">
	</g>
	<g id="svg_12_1_">
	</g>
	<g id="svg_13_1_">
	</g>
	<g id="svg_14_1_">
	</g>
	<g id="svg_15_1_">
	</g>
	<g id="svg_16_1_">
	</g>
</g>
<g>
	<title>Layer 1</title>
	<path id="svg_1_2_" d="M36.4,182.4L4.2,201c-2.6,1.5-4.2,4.3-4.2,7.3l0.1,37.2c0,3,1.6,5.8,4.2,7.3l32.2,18.5
		c2.6,1.5,5.8,1.5,8.4,0l32.2-18.7c2.6-1.5,4.2-4.3,4.2-7.3l-0.1-37.2c0-3-1.6-5.8-4.2-7.3l-32.2-18.5
		C42.2,180.9,39,180.9,36.4,182.4L36.4,182.4z"/>
	<g id="svg_2_2_">
	</g>
	<g id="svg_3_2_">
	</g>
	<g id="svg_4_2_">
	</g>
	<g id="svg_5_2_">
	</g>
	<g id="svg_6_2_">
	</g>
	<g id="svg_7_2_">
	</g>
	<g id="svg_8_2_">
	</g>
	<g id="svg_9_2_">
	</g>
	<g id="svg_10_2_">
	</g>
	<g id="svg_11_2_">
	</g>
	<g id="svg_12_2_">
	</g>
	<g id="svg_13_2_">
	</g>
	<g id="svg_14_2_">
	</g>
	<g id="svg_15_2_">
	</g>
	<g id="svg_16_2_">
	</g>
</g>
<g>
	<title>Layer 1</title>
	<path id="svg_1_3_" d="M317,256.1l-109.1,63.3c-8.8,5.1-14.3,14.6-14.2,24.8l0.2,126.1c0,10.2,5.5,19.6,14.3,24.7l109.4,62.8
		c8.8,5.1,19.7,5.1,28.6-0.1l109.1-63.2c8.8-5.1,14.3-14.6,14.2-24.8l-0.2-126.1c0-10.2-5.5-19.6-14.3-24.7L345.7,256
		C336.7,251,325.9,251,317,256.1L317,256.1z"/>
	<g id="svg_2_3_">
	</g>
	<g id="svg_3_3_">
	</g>
	<g id="svg_4_3_">
	</g>
	<g id="svg_5_3_">
	</g>
	<g id="svg_6_3_">
	</g>
	<g id="svg_7_3_">
	</g>
	<g id="svg_8_3_">
	</g>
	<g id="svg_9_3_">
	</g>
	<g id="svg_10_3_">
	</g>
	<g id="svg_11_3_">
	</g>
	<g id="svg_12_3_">
	</g>
	<g id="svg_13_3_">
	</g>
	<g id="svg_14_3_">
	</g>
	<g id="svg_15_3_">
	</g>
	<g id="svg_16_3_">
	</g>
</g>
<g>
	<title>Layer 1</title>
	<path id="svg_1_4_" d="M198.7,50.3l-87.9,51c-7.1,4.1-11.5,11.8-11.4,20l0.2,101.5c0,8.2,4.4,15.8,11.5,19.9l88.1,50.6
		c7.1,4.1,15.9,4.1,23-0.1l87.9-50.9c7.1-4.1,11.5-11.8,11.4-20l-0.2-101.5c0-8.2-4.4-15.8-11.5-19.9l-88-50.7
		C214.6,46.2,205.9,46.2,198.7,50.3L198.7,50.3z"/>
	<g id="svg_2_4_">
	</g>
	<g id="svg_3_4_">
	</g>
	<g id="svg_4_4_">
	</g>
	<g id="svg_5_4_">
	</g>
	<g id="svg_6_4_">
	</g>
	<g id="svg_7_4_">
	</g>
	<g id="svg_8_4_">
	</g>
	<g id="svg_9_4_">
	</g>
	<g id="svg_10_4_">
	</g>
	<g id="svg_11_4_">
	</g>
	<g id="svg_12_4_">
	</g>
	<g id="svg_13_4_">
	</g>
	<g id="svg_14_4_">
	</g>
	<g id="svg_15_4_">
	</g>
	<g id="svg_16_4_">
	</g>
</g>
</svg>
