<?xml version="1.0" encoding="utf-8"?>
<!-- Generator: Adobe Illustrator 21.0.0, SVG Export Plug-In . SVG Version: 6.00 Build 0)  -->
<svg version="1.2" baseProfile="tiny" id="Layer_1" xmlns:svg="http://www.w3.org/2000/svg"
	 xmlns="http://www.w3.org/2000/svg" xmlns:xlink="http://www.w3.org/1999/xlink" x="0px" y="0px" viewBox="0 0 613.4 561.7"
	 xml:space="preserve">
<g>
	<title>Layer 1</title>
	<path id="svg_1_3_" d="M153.8,305.5l109.1-63.3c8.8-5.1,14.3-14.6,14.2-24.8l-0.2-126.1c0-10.2-5.5-19.6-14.3-24.7L153.2,3.8
		c-8.8-5.1-19.7-5.1-28.6,0.1L15.5,67.1C6.7,72.2,1.2,81.7,1.3,91.9L1.5,218c0,10.2,5.5,19.6,14.3,24.7l109.3,62.9
		C134.1,310.6,144.9,310.6,153.8,305.5L153.8,305.5z"/>
	<g id="svg_2_3_">
	</g>
	<g id="svg_3_3_">
	</g>
	<g id="svg_4_3_">
	</g>
	<g id="svg_5_3_">
	</g>
	<g id="svg_6_3_">
	</g>
	<g id="svg_7_3_">
	</g>
	<g id="svg_8_3_">
	</g>
	<g id="svg_9_3_">
	</g>
	<g id="svg_10_3_">
	</g>
	<g id="svg_11_3_">
	</g>
	<g id="svg_12_3_">
	</g>
	<g id="svg_13_3_">
	</g>
	<g id="svg_14_3_">
	</g>
	<g id="svg_15_3_">
	</g>
	<g id="svg_16_3_">
	</g>
</g>
<g>
	<title>Layer 1</title>
	<path id="svg_1_1_" d="M196.3,510.3l76.1-44.1c6.1-3.6,10-10.2,9.9-17.3l-0.1-87.9c0-7.1-3.8-13.7-10-17.2L195.9,300
		c-6.1-3.6-13.7-3.6-19.9,0.1l-76.1,44.1c-6.1,3.6-10,10.2-9.9,17.3l0.1,87.9c0,7.1,3.8,13.7,10,17.2l76.2,43.9
		C182.6,513.9,190.1,513.9,196.3,510.3L196.3,510.3z"/>
	<g id="svg_2_1_">
	</g>
	<g id="svg_3_1_">
	</g>
	<g id="svg_4_1_">
	</g>
	<g id="svg_5_1_">
	</g>
	<g id="svg_6_1_">
	</g>
	<g id="svg_7_1_">
	</g>
	<g id="svg_8_1_">
	</g>
	<g id="svg_9_1_">
	</g>
	<g id="svg_10_1_">
	</g>
	<g id="svg_11_1_">
	</g>
	<g id="svg_12_1_">
	</g>
	<g id="svg_13_1_">
	</g>
	<g id="svg_14_1_">
	</g>
	<g id="svg_15_1_">
	</g>
	<g id="svg_16_1_">
	</g>
</g>
<g>
	<title>Layer 1</title>
	<path id="svg_1_2_" d="M367.1,538.1l55.9-32.4c4.5-2.6,7.3-7.5,7.3-12.7l-0.1-64.6c0-5.2-2.8-10-7.3-12.7l-56.1-32.2
		c-4.5-2.6-10.1-2.6-14.7,0.1l-55.9,32.4c-4.5,2.6-7.3,7.5-7.3,12.7l0.1,64.6c0,5.2,2.8,10,7.3,12.7l56,32.2
		C357.1,540.7,362.6,540.7,367.1,538.1L367.1,538.1z"/>
	<g id="svg_2_2_">
	</g>
	<g id="svg_3_2_">
	</g>
	<g id="svg_4_2_">
	</g>
	<g id="svg_5_2_">
	</g>
	<g id="svg_6_2_">
	</g>
	<g id="svg_7_2_">
	</g>
	<g id="svg_8_2_">
	</g>
	<g id="svg_9_2_">
	</g>
	<g id="svg_10_2_">
	</g>
	<g id="svg_11_2_">
	</g>
	<g id="svg_12_2_">
	</g>
	<g id="svg_13_2_">
	</g>
	<g id="svg_14_2_">
	</g>
	<g id="svg_15_2_">
	</g>
	<g id="svg_16_2_">
	</g>
</g>
<g>
	<title>Layer 1</title>
	<path id="svg_1_4_" d="M468.9,424.7l48.1-27.9c3.9-2.2,6.3-6.4,6.3-10.9l-0.1-55.6c0-4.5-2.4-8.6-6.3-10.9l-48.2-27.7
		c-3.9-2.2-8.7-2.2-12.6,0l-48.1,27.9c-3.9,2.2-6.3,6.4-6.3,10.9l0.1,55.6c0,4.5,2.4,8.6,6.3,10.9l48.2,27.7
		C460.2,426.9,465,426.9,468.9,424.7L468.9,424.7z"/>
	<g id="svg_2_4_">
	</g>
	<g id="svg_3_4_">
	</g>
	<g id="svg_4_4_">
	</g>
	<g id="svg_5_4_">
	</g>
	<g id="svg_6_4_">
	</g>
	<g id="svg_7_4_">
	</g>
	<g id="svg_8_4_">
	</g>
	<g id="svg_9_4_">
	</g>
	<g id="svg_10_4_">
	</g>
	<g id="svg_11_4_">
	</g>
	<g id="svg_12_4_">
	</g>
	<g id="svg_13_4_">
	</g>
	<g id="svg_14_4_">
	</g>
	<g id="svg_15_4_">
	</g>
	<g id="svg_16_4_">
	</g>
</g>
<g>
	<title>Layer 1</title>
	<path id="svg_1_5_" d="M435.3,300.1l36.9-21.4c3-1.7,4.8-4.9,4.8-8.4l-0.1-42.7c0-3.5-1.9-6.6-4.8-8.4l-37-21.3
		c-3-1.7-6.7-1.7-9.7,0l-36.9,21.4c-3,1.7-4.8,4.9-4.8,8.4l0.1,42.7c0,3.5,1.9,6.6,4.8,8.4l37,21.3
		C428.6,301.8,432.3,301.8,435.3,300.1L435.3,300.1z"/>
	<g id="svg_2_5_">
	</g>
	<g id="svg_3_5_">
	</g>
	<g id="svg_4_5_">
	</g>
	<g id="svg_5_5_">
	</g>
	<g id="svg_6_5_">
	</g>
	<g id="svg_7_5_">
	</g>
	<g id="svg_8_5_">
	</g>
	<g id="svg_9_5_">
	</g>
	<g id="svg_10_5_">
	</g>
	<g id="svg_11_5_">
	</g>
	<g id="svg_12_5_">
	</g>
	<g id="svg_13_5_">
	</g>
	<g id="svg_14_5_">
	</g>
	<g id="svg_15_5_">
	</g>
	<g id="svg_16_5_">
	</g>
</g>
<g>
	<title>Layer 1</title>
	<path id="svg_1_6_" d="M352.4,255.2l24.5-14.2c2-1.1,3.2-3.3,3.2-5.6l0-28.3c0-2.3-1.2-4.4-3.2-5.5l-24.5-14.1
		c-2-1.1-4.4-1.1-6.4,0l-24.5,14.2c-2,1.1-3.2,3.3-3.2,5.6l0,28.3c0,2.3,1.2,4.4,3.2,5.5l24.5,14.1
		C347.9,256.3,350.4,256.3,352.4,255.2L352.4,255.2z"/>
	<g id="svg_2_6_">
	</g>
	<g id="svg_3_6_">
	</g>
	<g id="svg_4_6_">
	</g>
	<g id="svg_5_6_">
	</g>
	<g id="svg_6_6_">
	</g>
	<g id="svg_7_6_">
	</g>
	<g id="svg_8_6_">
	</g>
	<g id="svg_9_6_">
	</g>
	<g id="svg_10_6_">
	</g>
	<g id="svg_11_6_">
	</g>
	<g id="svg_12_6_">
	</g>
	<g id="svg_13_6_">
	</g>
	<g id="svg_14_6_">
	</g>
	<g id="svg_15_6_">
	</g>
	<g id="svg_16_6_">
	</g>
</g>
<g>
	<title>Layer 1</title>
	<path id="svg_1_7_" d="M303.4,296.6l21.7-12.6c1.7-1,2.8-2.9,2.8-4.9l0-25c0-2-1.1-3.9-2.8-4.9l-21.7-12.5c-1.7-1-3.9-1-5.7,0
		L276,249.2c-1.7,1-2.8,2.9-2.8,4.9l0,25c0,2,1.1,3.9,2.8,4.9l21.7,12.5C299.5,297.6,301.7,297.6,303.4,296.6L303.4,296.6z"/>
	<g id="svg_2_7_">
	</g>
	<g id="svg_3_7_">
	</g>
	<g id="svg_4_7_">
	</g>
	<g id="svg_5_7_">
	</g>
	<g id="svg_6_7_">
	</g>
	<g id="svg_7_7_">
	</g>
	<g id="svg_8_7_">
	</g>
	<g id="svg_9_7_">
	</g>
	<g id="svg_10_7_">
	</g>
	<g id="svg_11_7_">
	</g>
	<g id="svg_12_7_">
	</g>
	<g id="svg_13_7_">
	</g>
	<g id="svg_14_7_">
	</g>
	<g id="svg_15_7_">
	</g>
	<g id="svg_16_7_">
	</g>
</g>
<g>
	<title>Layer 1</title>
	<path id="svg_1_8_" d="M315.5,350.3l18.9-11c1.5-0.9,2.5-2.5,2.5-4.3l0-21.9c0-1.8-1-3.4-2.5-4.3l-19-10.9c-1.5-0.9-3.4-0.9-5,0
		l-18.9,11c-1.5,0.9-2.5,2.5-2.5,4.3l0,21.9c0,1.8,1,3.4,2.5,4.3l19,10.9C312,351.2,313.9,351.2,315.5,350.3L315.5,350.3z"/>
	<g id="svg_2_8_">
	</g>
	<g id="svg_3_8_">
	</g>
	<g id="svg_4_8_">
	</g>
	<g id="svg_5_8_">
	</g>
	<g id="svg_6_8_">
	</g>
	<g id="svg_7_8_">
	</g>
	<g id="svg_8_8_">
	</g>
	<g id="svg_9_8_">
	</g>
	<g id="svg_10_8_">
	</g>
	<g id="svg_11_8_">
	</g>
	<g id="svg_12_8_">
	</g>
	<g id="svg_13_8_">
	</g>
	<g id="svg_14_8_">
	</g>
	<g id="svg_15_8_">
	</g>
	<g id="svg_16_8_">
	</g>
</g>
<g>
	<title>Layer 1</title>
	<path id="svg_1_9_" d="M361.6,329l14.2-8.3c1.1-0.7,1.9-1.9,1.9-3.2l0-16.5c0-1.3-0.7-2.6-1.9-3.2l-14.3-8.2
		c-1.1-0.7-2.6-0.7-3.7,0l-14.2,8.2c-1.1,0.7-1.9,1.9-1.9,3.2l0,16.5c0,1.3,0.7,2.6,1.9,3.2l14.3,8.2
		C359,329.7,360.4,329.7,361.6,329L361.6,329z"/>
	<g id="svg_2_9_">
	</g>
	<g id="svg_3_9_">
	</g>
	<g id="svg_4_9_">
	</g>
	<g id="svg_5_9_">
	</g>
	<g id="svg_6_9_">
	</g>
	<g id="svg_7_9_">
	</g>
	<g id="svg_8_9_">
	</g>
	<g id="svg_9_9_">
	</g>
	<g id="svg_10_9_">
	</g>
	<g id="svg_11_9_">
	</g>
	<g id="svg_12_9_">
	</g>
	<g id="svg_13_9_">
	</g>
	<g id="svg_14_9_">
	</g>
	<g id="svg_15_9_">
	</g>
	<g id="svg_16_9_">
	</g>
</g>
</svg>
