<?xml version="1.0" encoding="utf-8"?>
<!-- Generator: Adobe Illustrator 21.0.0, SVG Export Plug-In . SVG Version: 6.00 Build 0)  -->
<svg version="1.2" baseProfile="tiny" id="Layer_1" xmlns:svg="http://www.w3.org/2000/svg"
	 xmlns="http://www.w3.org/2000/svg" xmlns:xlink="http://www.w3.org/1999/xlink" x="0px" y="0px" viewBox="0 0 613.4 561.7"
	 xml:space="preserve">
<g>
	<title>Layer 1</title>
	<path id="svg_1" d="M378.5,351.7l65.5-38c5.3-3.1,8.5-8.7,8.5-14.9l-0.1-75.8c0-6.1-3.3-11.8-8.6-14.8l-65.7-37.8
		c-5.3-3.1-11.8-3-17.1,0l-65.5,38c-5.3,3.1-8.5,8.7-8.5,14.9l0.1,75.8c0,6.1,3.3,11.8,8.6,14.8l65.7,37.8
		C366.7,354.6,373.2,354.6,378.5,351.7L378.5,351.7z"/>
	<g id="svg_2">
	</g>
	<g id="svg_3">
	</g>
	<g id="svg_4">
	</g>
	<g id="svg_5">
	</g>
	<g id="svg_6">
	</g>
	<g id="svg_7">
	</g>
	<g id="svg_8">
	</g>
	<g id="svg_9">
	</g>
	<g id="svg_10">
	</g>
	<g id="svg_11">
	</g>
	<g id="svg_12">
	</g>
	<g id="svg_13">
	</g>
	<g id="svg_14">
	</g>
	<g id="svg_15">
	</g>
	<g id="svg_16">
	</g>
</g>
<g>
	<title>Layer 1</title>
	<path id="svg_1_1_" d="M241.1,560.5l91.9-53.3c7.4-4.3,12-12.3,12-20.9l-0.2-106.2c0-8.6-4.6-16.5-12-20.8l-92.1-53
		c-7.4-4.3-16.6-4.3-24.1,0.1l-92,53.3c-7.4,4.3-12,12.3-12,20.9l0.2,106.2c0,8.6,4.6,16.5,12,20.8l92.1,53
		C224.6,564.8,233.6,564.8,241.1,560.5L241.1,560.5z"/>
	<g id="svg_2_1_">
	</g>
	<g id="svg_3_1_">
	</g>
	<g id="svg_4_1_">
	</g>
	<g id="svg_5_1_">
	</g>
	<g id="svg_6_1_">
	</g>
	<g id="svg_7_1_">
	</g>
	<g id="svg_8_1_">
	</g>
	<g id="svg_9_1_">
	</g>
	<g id="svg_10_1_">
	</g>
	<g id="svg_11_1_">
	</g>
	<g id="svg_12_1_">
	</g>
	<g id="svg_13_1_">
	</g>
	<g id="svg_14_1_">
	</g>
	<g id="svg_15_1_">
	</g>
	<g id="svg_16_1_">
	</g>
</g>
<g>
	<title>Layer 1</title>
	<path id="svg_1_2_" d="M560.6,132.2l32.2-18.6c2.6-1.5,4.2-4.3,4.2-7.3l-0.1-37.2c0-3-1.6-5.8-4.2-7.3l-32.2-18.5
		c-2.6-1.5-5.8-1.5-8.4,0L519.9,62c-2.6,1.5-4.2,4.3-4.2,7.3l0.1,37.2c0,3,1.6,5.8,4.2,7.3l32.2,18.5
		C554.8,133.7,558,133.7,560.6,132.2L560.6,132.2z"/>
	<g id="svg_2_2_">
	</g>
	<g id="svg_3_2_">
	</g>
	<g id="svg_4_2_">
	</g>
	<g id="svg_5_2_">
	</g>
	<g id="svg_6_2_">
	</g>
	<g id="svg_7_2_">
	</g>
	<g id="svg_8_2_">
	</g>
	<g id="svg_9_2_">
	</g>
	<g id="svg_10_2_">
	</g>
	<g id="svg_11_2_">
	</g>
	<g id="svg_12_2_">
	</g>
	<g id="svg_13_2_">
	</g>
	<g id="svg_14_2_">
	</g>
	<g id="svg_15_2_">
	</g>
	<g id="svg_16_2_">
	</g>
</g>
<g>
	<title>Layer 1</title>
	<path id="svg_1_3_" d="M152.5,330.2l109.1-63.3c8.8-5.1,14.3-14.6,14.2-24.8L275.6,116c0-10.2-5.5-19.6-14.3-24.7L151.9,28.5
		c-8.8-5.1-19.7-5.1-28.6,0.1L14.2,91.8C5.4,96.9-0.1,106.4,0,116.6l0.2,126.1c0,10.2,5.5,19.6,14.3,24.7l109.3,62.9
		C132.8,335.3,143.6,335.3,152.5,330.2L152.5,330.2z"/>
	<g id="svg_2_3_">
	</g>
	<g id="svg_3_3_">
	</g>
	<g id="svg_4_3_">
	</g>
	<g id="svg_5_3_">
	</g>
	<g id="svg_6_3_">
	</g>
	<g id="svg_7_3_">
	</g>
	<g id="svg_8_3_">
	</g>
	<g id="svg_9_3_">
	</g>
	<g id="svg_10_3_">
	</g>
	<g id="svg_11_3_">
	</g>
	<g id="svg_12_3_">
	</g>
	<g id="svg_13_3_">
	</g>
	<g id="svg_14_3_">
	</g>
	<g id="svg_15_3_">
	</g>
	<g id="svg_16_3_">
	</g>
</g>
<g>
	<title>Layer 1</title>
	<path id="svg_1_4_" d="M450.4,192.2l50.6-29.3c4.1-2.4,6.6-6.8,6.6-11.5L507.5,93c0-4.7-2.5-9.1-6.6-11.5l-50.8-29.1
		C446,50,441,50,436.9,52.5l-50.6,29.3c-4.1,2.4-6.6,6.8-6.6,11.5l0.1,58.4c0,4.7,2.5,9.1,6.6,11.5l50.6,29.2
		C441.3,194.6,446.3,194.6,450.4,192.2L450.4,192.2z"/>
	<g id="svg_2_4_">
	</g>
	<g id="svg_3_4_">
	</g>
	<g id="svg_4_4_">
	</g>
	<g id="svg_5_4_">
	</g>
	<g id="svg_6_4_">
	</g>
	<g id="svg_7_4_">
	</g>
	<g id="svg_8_4_">
	</g>
	<g id="svg_9_4_">
	</g>
	<g id="svg_10_4_">
	</g>
	<g id="svg_11_4_">
	</g>
	<g id="svg_12_4_">
	</g>
	<g id="svg_13_4_">
	</g>
	<g id="svg_14_4_">
	</g>
	<g id="svg_15_4_">
	</g>
	<g id="svg_16_4_">
	</g>
</g>
<g>
	<title>Layer 1</title>
	<path id="svg_1_5_" d="M460.6,536.2l75-43.5c6.1-3.5,9.7-10,9.7-17.1l-0.1-86.8c0-7-3.8-13.5-9.8-16.9l-75.2-43.3
		c-6.1-3.5-13.5-3.4-19.6,0l-75,43.5c-6.1,3.5-9.7,10-9.7,17.1L356,476c0,7,3.8,13.5,9.8,16.9l75.2,43.3
		C447.1,539.5,454.6,539.5,460.6,536.2L460.6,536.2z"/>
	<g id="svg_2_5_">
	</g>
	<g id="svg_3_5_">
	</g>
	<g id="svg_4_5_">
	</g>
	<g id="svg_5_5_">
	</g>
	<g id="svg_6_5_">
	</g>
	<g id="svg_7_5_">
	</g>
	<g id="svg_8_5_">
	</g>
	<g id="svg_9_5_">
	</g>
	<g id="svg_10_5_">
	</g>
	<g id="svg_11_5_">
	</g>
	<g id="svg_12_5_">
	</g>
	<g id="svg_13_5_">
	</g>
	<g id="svg_14_5_">
	</g>
	<g id="svg_15_5_">
	</g>
	<g id="svg_16_5_">
	</g>
</g>
</svg>
