<?xml version="1.0" encoding="utf-8"?>
<!-- Generator: Adobe Illustrator 21.0.0, SVG Export Plug-In . SVG Version: 6.00 Build 0)  -->
<svg version="1.2" baseProfile="tiny" id="Layer_1" xmlns:svg="http://www.w3.org/2000/svg"
	 xmlns="http://www.w3.org/2000/svg" xmlns:xlink="http://www.w3.org/1999/xlink" x="0px" y="0px" viewBox="0 0 613.4 561.7"
	 xml:space="preserve">
<g>
	<title>Layer 1</title>
	<path id="svg_1" d="M525.8,303l65.5-38c5.3-3.1,8.5-8.7,8.5-14.9l-0.1-75.8c0-6.1-3.3-11.8-8.6-14.8l-65.7-37.8
		c-5.3-3.1-11.8-3-17.1,0l-65.5,38c-5.3,3.1-8.5,8.7-8.5,14.9l0.1,75.8c0,6.1,3.3,11.8,8.6,14.8l65.7,37.8
		C514,305.9,520.5,305.9,525.8,303L525.8,303z"/>
	<g id="svg_2">
	</g>
	<g id="svg_3">
	</g>
	<g id="svg_4">
	</g>
	<g id="svg_5">
	</g>
	<g id="svg_6">
	</g>
	<g id="svg_7">
	</g>
	<g id="svg_8">
	</g>
	<g id="svg_9">
	</g>
	<g id="svg_10">
	</g>
	<g id="svg_11">
	</g>
	<g id="svg_12">
	</g>
	<g id="svg_13">
	</g>
	<g id="svg_14">
	</g>
	<g id="svg_15">
	</g>
	<g id="svg_16">
	</g>
</g>
<g>
	<title>Layer 1</title>
	<path id="svg_1_1_" d="M152.5,557.8l109.1-63.3c8.8-5.1,14.3-14.6,14.2-24.8l-0.2-126.1c0-10.2-5.5-19.6-14.3-24.7L152,256
		c-8.8-5.1-19.7-5.1-28.6,0.1L14.2,319.4C5.4,324.5,0,334,0,344.2l0.2,126.1c0,10.2,5.5,19.6,14.3,24.7l109.3,62.9
		C132.8,562.9,143.6,562.9,152.5,557.8L152.5,557.8z"/>
	<g id="svg_2_1_">
	</g>
	<g id="svg_3_1_">
	</g>
	<g id="svg_4_1_">
	</g>
	<g id="svg_5_1_">
	</g>
	<g id="svg_6_1_">
	</g>
	<g id="svg_7_1_">
	</g>
	<g id="svg_8_1_">
	</g>
	<g id="svg_9_1_">
	</g>
	<g id="svg_10_1_">
	</g>
	<g id="svg_11_1_">
	</g>
	<g id="svg_12_1_">
	</g>
	<g id="svg_13_1_">
	</g>
	<g id="svg_14_1_">
	</g>
	<g id="svg_15_1_">
	</g>
	<g id="svg_16_1_">
	</g>
</g>
<g>
	<title>Layer 1</title>
	<path id="svg_1_2_" d="M577,379.2l32.2-18.6c2.6-1.5,4.2-4.3,4.2-7.3l-0.1-37.2c0-3-1.6-5.8-4.2-7.3l-32.2-18.5
		c-2.6-1.5-5.8-1.5-8.4,0L536.3,309c-2.6,1.5-4.2,4.3-4.2,7.3l0.1,37.2c0,3,1.6,5.8,4.2,7.3l32.2,18.5
		C571.2,380.7,574.4,380.7,577,379.2L577,379.2z"/>
	<g id="svg_2_2_">
	</g>
	<g id="svg_3_2_">
	</g>
	<g id="svg_4_2_">
	</g>
	<g id="svg_5_2_">
	</g>
	<g id="svg_6_2_">
	</g>
	<g id="svg_7_2_">
	</g>
	<g id="svg_8_2_">
	</g>
	<g id="svg_9_2_">
	</g>
	<g id="svg_10_2_">
	</g>
	<g id="svg_11_2_">
	</g>
	<g id="svg_12_2_">
	</g>
	<g id="svg_13_2_">
	</g>
	<g id="svg_14_2_">
	</g>
	<g id="svg_15_2_">
	</g>
	<g id="svg_16_2_">
	</g>
</g>
<g>
	<title>Layer 1</title>
	<path id="svg_1_3_" d="M296.4,305.5l109.1-63.3c8.8-5.1,14.3-14.6,14.2-24.8l-0.2-126.1c0-10.2-5.5-19.6-14.3-24.7L295.8,3.8
		c-8.8-5.1-19.7-5.1-28.6,0.1L158.1,67.1c-8.8,5.1-14.3,14.6-14.2,24.8l0.2,126.1c0,10.2,5.5,19.6,14.3,24.7l109.3,62.9
		C276.7,310.6,287.5,310.6,296.4,305.5L296.4,305.5z"/>
	<g id="svg_2_3_">
	</g>
	<g id="svg_3_3_">
	</g>
	<g id="svg_4_3_">
	</g>
	<g id="svg_5_3_">
	</g>
	<g id="svg_6_3_">
	</g>
	<g id="svg_7_3_">
	</g>
	<g id="svg_8_3_">
	</g>
	<g id="svg_9_3_">
	</g>
	<g id="svg_10_3_">
	</g>
	<g id="svg_11_3_">
	</g>
	<g id="svg_12_3_">
	</g>
	<g id="svg_13_3_">
	</g>
	<g id="svg_14_3_">
	</g>
	<g id="svg_15_3_">
	</g>
	<g id="svg_16_3_">
	</g>
</g>
<g>
	<title>Layer 1</title>
	<path id="svg_1_4_" d="M414.7,511.3l87.9-51c7.1-4.1,11.5-11.8,11.4-20l-0.2-101.5c0-8.2-4.4-15.8-11.5-19.9l-88.1-50.6
		c-7.1-4.1-15.9-4.1-23,0.1l-87.9,50.9c-7.1,4.1-11.5,11.8-11.4,20l0.2,101.5c0,8.2,4.4,15.8,11.5,19.9l88,50.7
		C398.8,515.4,407.5,515.4,414.7,511.3L414.7,511.3z"/>
	<g id="svg_2_4_">
	</g>
	<g id="svg_3_4_">
	</g>
	<g id="svg_4_4_">
	</g>
	<g id="svg_5_4_">
	</g>
	<g id="svg_6_4_">
	</g>
	<g id="svg_7_4_">
	</g>
	<g id="svg_8_4_">
	</g>
	<g id="svg_9_4_">
	</g>
	<g id="svg_10_4_">
	</g>
	<g id="svg_11_4_">
	</g>
	<g id="svg_12_4_">
	</g>
	<g id="svg_13_4_">
	</g>
	<g id="svg_14_4_">
	</g>
	<g id="svg_15_4_">
	</g>
	<g id="svg_16_4_">
	</g>
</g>
</svg>
